<svg width="90" height="90" viewBox="0 0 90 90" fill="none" xmlns="http://www.w3.org/2000/svg">
<path d="M56.25 33.75V5.625H61.875V33.75H56.25ZM67.5 33.75V5.625H73.125V33.75H67.5ZM78.75 33.75V5.625H84.375V33.75H78.75ZM45 56.25C43.5132 56.2846 42.0347 56.0173 40.6542 55.4642C39.2736 54.9111 38.0196 54.0837 36.9679 53.0321C35.9163 51.9804 35.0889 50.7264 34.5358 49.3458C33.9827 47.9653 33.7154 46.4868 33.75 45C33.7154 43.5132 33.9827 42.0347 34.5358 40.6542C35.0889 39.2736 35.9163 38.0196 36.9679 36.9679C38.0196 35.9163 39.2736 35.0889 40.6542 34.5358C42.0347 33.9827 43.5132 33.7154 45 33.75V28.125C41.6624 28.125 38.3998 29.1147 35.6248 30.969C32.8497 32.8232 30.6868 35.4587 29.4095 38.5422C28.1323 41.6257 27.7981 45.0187 28.4493 48.2921C29.1004 51.5656 30.7076 54.5724 33.0676 56.9324C35.4276 59.2924 38.4344 60.8996 41.7079 61.5508C44.9813 62.2019 48.3743 61.8677 51.4578 60.5905C54.5413 59.3132 57.1768 57.1503 59.0311 54.3752C60.8853 51.6002 61.875 48.3376 61.875 45H56.25C56.2846 46.4868 56.0173 47.9653 55.4642 49.3458C54.9111 50.7264 54.0837 51.9804 53.0321 53.0321C51.9804 54.0837 50.7264 54.9111 49.3458 55.4642C47.9653 56.0173 46.4868 56.2846 45 56.25Z" fill="black"/>
<path d="M81.2617 51.9019L73.4007 45L69.6938 49.23L77.5463 56.1262L70.9088 67.6238L61.2704 64.3613C59.0029 66.2634 56.4194 67.7532 53.6373 68.7628L51.6376 78.75H38.3626L36.3657 68.7656C33.6035 67.7392 31.0392 66.2435 28.786 64.3444L19.0913 67.6238L12.4538 56.1262L20.1179 49.3903C19.592 46.482 19.5854 43.5035 20.0982 40.5928L12.4538 33.8709L19.0913 22.3762L28.7298 25.6388C30.9979 23.7353 33.5824 22.2446 36.3657 21.2344L38.3626 11.25H45.0001V5.625H38.3626C37.0622 5.62514 35.8021 6.07581 34.7965 6.90035C33.791 7.72488 33.1022 8.87234 32.8473 10.1475L31.4298 17.2322C30.1382 17.8509 28.8911 18.5585 27.6976 19.35L20.8913 17.0466C19.6598 16.6307 18.3221 16.6542 17.1059 17.1131C15.8897 17.572 14.87 18.4379 14.2201 19.5637L7.5826 31.0612C6.93238 32.1871 6.69222 33.5034 6.90296 34.7863C7.1137 36.0692 7.76233 37.2395 8.73853 38.0981L14.1695 42.8709C14.1217 43.5797 14.0626 44.2828 14.0626 45C14.0626 45.7256 14.0888 46.4438 14.1413 47.1544L8.74135 51.9019C7.76423 52.7598 7.11452 53.9297 6.90275 55.2127C6.69098 56.4956 6.93022 57.8123 7.57978 58.9387L14.2173 70.4362C14.8674 71.5633 15.8881 72.4301 17.1055 72.8891C18.3229 73.348 19.6618 73.3708 20.8942 72.9534L27.7398 70.6359C28.9192 71.4315 30.1522 72.1448 31.4298 72.7706L32.8445 79.8525C33.0994 81.1281 33.7887 82.276 34.7948 83.1005C35.8009 83.9251 37.0617 84.3755 38.3626 84.375H51.6376C52.938 84.3749 54.1981 83.9242 55.2037 83.0997C56.2092 82.2751 56.898 81.1277 57.1529 79.8525L58.5704 72.7678C59.862 72.1491 61.1091 71.4415 62.3026 70.65L69.106 72.9506C70.3377 73.3675 71.6757 73.3448 72.8925 72.8864C74.1093 72.428 75.1297 71.5622 75.7801 70.4362L82.4176 58.9387C83.0678 57.8129 83.308 56.4966 83.0972 55.2137C82.8865 53.9308 82.2379 52.7605 81.2617 51.9019Z" fill="black"/>
</svg>
