<svg width="37" height="32" viewBox="0 0 37 32" fill="none" xmlns="http://www.w3.org/2000/svg">
<path d="M15.1918 14.8759C15.4468 15.1693 15.6751 15.4343 15.8768 15.6709C16.3434 14.996 16.9768 14.0818 17.7634 12.9543C20.2942 9.32671 22.8447 5.71305 25.4151 2.11345C26.6776 0.344282 29.1151 -0.689884 31.3151 0.530949C32.6243 1.25762 34.1859 2.38345 35.4159 4.06012C36.6359 5.72262 36.2768 7.81345 35.3259 9.25345C28.1901 20.0643 23.0401 26.6484 20.1726 30.0751C18.2976 32.3168 15.0218 32.4718 12.9168 30.4751C8.73776 26.5001 4.80991 22.2692 1.15593 17.8068C-0.13407 16.2268 -0.515736 13.8293 0.90343 12.0101C1.82426 10.8301 2.8651 9.83095 3.79093 9.04928C5.83676 7.32178 8.6951 7.78762 10.3893 9.58261C12.0261 11.3143 13.6273 13.0786 15.1918 14.8759Z" fill="#8FBFFA"/>
</svg>
