<svg width="60" height="60" viewBox="0 0 60 60" fill="none" xmlns="http://www.w3.org/2000/svg">
<g clip-path="url(#clip0_129_470)">
<path d="M30.0002 3.33325C24.726 3.33325 19.5703 4.89722 15.185 7.8274C10.7997 10.7576 7.38172 14.9223 5.36339 19.795C3.34505 24.6677 2.81696 30.0295 3.8459 35.2023C4.87484 40.3752 7.41459 45.1267 11.144 48.8561C14.8734 52.5855 19.6249 55.1253 24.7978 56.1542C29.9706 57.1831 35.3324 56.655 40.2051 54.6367C45.0778 52.6184 49.2425 49.2004 52.1727 44.8151C55.1029 40.4298 56.6668 35.2741 56.6668 29.9999C56.6668 22.9275 53.8573 16.1447 48.8564 11.1437C43.8554 6.14277 37.0726 3.33325 30.0002 3.33325ZM47.4168 21.0499L25.5168 42.9333L12.5835 29.9999C12.1415 29.5579 11.8932 28.9584 11.8932 28.3333C11.8932 27.7081 12.1415 27.1086 12.5835 26.6666C13.0255 26.2246 13.6251 25.9762 14.2502 25.9762C14.8753 25.9762 15.4748 26.2246 15.9168 26.6666L25.5502 36.2999L44.1168 17.7499C44.3357 17.531 44.5956 17.3574 44.8815 17.239C45.1675 17.1205 45.474 17.0596 45.7835 17.0596C46.093 17.0596 46.3995 17.1205 46.6855 17.239C46.9715 17.3574 47.2313 17.531 47.4502 17.7499C47.669 17.9688 47.8427 18.2286 47.9611 18.5146C48.0796 18.8006 48.1405 19.1071 48.1405 19.4166C48.1405 19.7261 48.0796 20.0326 47.9611 20.3186C47.8427 20.6045 47.669 20.8644 47.4502 21.0833L47.4168 21.0499Z" fill="white"/>
</g>
<defs>
<clipPath id="clip0_129_470">
<rect width="60" height="60" fill="white"/>
</clipPath>
</defs>
</svg>
