<svg width="25" height="25" viewBox="0 0 25 25" fill="none" xmlns="http://www.w3.org/2000/svg">
<path d="M24.2087 22.6275L22.5 17.5H20.625L21.6662 22.5H3.33375L4.375 17.5H2.5L0.789998 22.6275C0.356248 23.9325 1.125 25 2.5 25H22.5C23.875 25 24.6437 23.9325 24.2087 22.6275ZM18.75 6.25C18.75 4.5924 18.0915 3.00269 16.9194 1.83058C15.7473 0.65848 14.1576 0 12.5 0C10.8424 0 9.25268 0.65848 8.08058 1.83058C6.90848 3.00269 6.25 4.5924 6.25 6.25C6.25 12.2188 12.5 18.75 12.5 18.75C12.5 18.75 18.75 12.2188 18.75 6.25ZM9.125 6.325C9.12533 5.43011 9.48106 4.57199 10.114 3.93932C10.7469 3.30666 11.6051 2.95125 12.5 2.95125C13.3949 2.95125 14.2532 3.30676 14.886 3.93958C15.5189 4.5724 15.8744 5.43069 15.8744 6.32563C15.8744 7.22056 15.5189 8.07885 14.886 8.71167C14.2532 9.34449 13.3949 9.7 12.5 9.7C11.6049 9.7 10.7464 9.34442 10.1135 8.71148C9.48058 8.07855 9.125 7.22011 9.125 6.325Z" fill="black"/>
</svg>
