<svg width="101" height="95" viewBox="0 0 101 95" fill="none" xmlns="http://www.w3.org/2000/svg">
<rect x="0.25" y="0.25" width="100.5" height="94.5" rx="19.75" stroke="#AAAAAA" stroke-width="0.5"/>
<path d="M52.8751 72.375H49.1251C48.1306 72.375 47.1767 71.9799 46.4735 71.2766C45.7702 70.5734 45.3751 69.6196 45.3751 68.625L45.381 58.568C45.3811 58.4856 45.3595 58.4047 45.3185 58.3334C45.2774 58.262 45.2182 58.2027 45.1469 58.1615C45.0756 58.1203 44.9948 58.0986 44.9124 58.0985C44.8301 58.0985 44.7492 58.1202 44.6779 58.1613L35.9661 63.2074C35.1189 63.6966 34.112 63.8291 33.1671 63.5759C32.2221 63.3228 31.4163 62.7046 30.9271 61.8574L28.9935 58.5012L28.9865 58.4895C28.5104 57.6426 28.3856 56.6427 28.6389 55.7048C28.8923 54.7669 29.5035 53.9659 30.3411 53.4738L39.0845 48.4055C39.1555 48.3643 39.2145 48.3051 39.2555 48.234C39.2965 48.1628 39.3181 48.0821 39.3181 48C39.3181 47.9179 39.2965 47.8372 39.2555 47.766C39.2145 47.6949 39.1555 47.6357 39.0845 47.5945L30.3494 42.5309C29.9288 42.2897 29.56 41.9678 29.2641 41.5837C28.9683 41.1996 28.7513 40.7608 28.6255 40.2926C28.4997 39.8243 28.4677 39.3359 28.5313 38.8552C28.5948 38.3746 28.7527 37.9112 28.9958 37.4918L30.9224 34.1461C31.1658 33.7231 31.4908 33.3526 31.8784 33.0561C32.266 32.7596 32.7087 32.543 33.1806 32.4187C33.6472 32.2935 34.134 32.2622 34.6127 32.3266C35.0915 32.391 35.5527 32.5497 35.9697 32.7937L44.6779 37.8328C44.7492 37.874 44.8301 37.8956 44.9124 37.8956C44.9948 37.8956 45.0756 37.8739 45.1469 37.8326C45.2182 37.7914 45.2774 37.7321 45.3185 37.6608C45.3595 37.5894 45.3811 37.5085 45.381 37.4262L45.3751 27.375C45.3751 26.3804 45.7702 25.4266 46.4735 24.7233C47.1767 24.0201 48.1306 23.625 49.1251 23.625H52.8751C53.8697 23.625 54.8235 24.0201 55.5268 24.7233C56.23 25.4266 56.6251 26.3804 56.6251 27.375V37.4203C56.625 37.5027 56.6466 37.5836 56.6877 37.6549C56.7288 37.7263 56.7879 37.7856 56.8592 37.8268C56.9305 37.868 57.0114 37.8897 57.0937 37.8898C57.1761 37.8898 57.2569 37.8681 57.3283 37.827L66.04 32.7809C66.8875 32.2927 67.894 32.1606 68.8387 32.4137C69.7834 32.6668 70.5891 33.2844 71.079 34.1309L73.0115 37.4871L73.0185 37.4977C73.5 38.3454 73.6268 39.3492 73.3713 40.29C73.1158 41.2309 72.4986 42.0326 71.6544 42.5203L62.9204 47.5828C62.8494 47.624 62.7904 47.6832 62.7495 47.7543C62.7085 47.8255 62.6869 47.9062 62.6869 47.9883C62.6869 48.0704 62.7085 48.1511 62.7495 48.2222C62.7904 48.2934 62.8494 48.3525 62.9204 48.3937L71.6544 53.4562C72.075 53.6974 72.4438 54.0193 72.7397 54.4034C73.0355 54.7875 73.2526 55.2262 73.3785 55.6944C73.5043 56.1626 73.5365 56.651 73.4731 57.1317C73.4097 57.6123 73.2521 58.0758 73.0091 58.4953L71.0826 61.841C70.8391 62.264 70.5142 62.6345 70.1265 62.931C69.7389 63.2275 69.2963 63.4441 68.8244 63.5684C68.3578 63.6936 67.871 63.7249 67.3922 63.6605C66.9134 63.5962 66.4522 63.4374 66.0353 63.1934L57.3271 58.1543C57.2559 58.1132 57.1751 58.0915 57.0928 58.0915C57.0106 58.0915 56.9298 58.1131 56.8585 58.1542C56.7873 58.1953 56.7281 58.2544 56.6869 58.3256C56.6458 58.3968 56.624 58.4775 56.624 58.5598L56.6251 68.625C56.6251 69.6196 56.23 70.5734 55.5268 71.2766C54.8235 71.9799 53.8697 72.375 52.8751 72.375Z" fill="white"/>
</svg>
