<svg width="45" height="45" viewBox="0 0 45 45" fill="none" xmlns="http://www.w3.org/2000/svg">
<rect width="45" height="45" rx="22.5" fill="#132272"/>
<path d="M11.7502 23C11.7502 20.9325 13.4327 19.25 15.5002 19.25H21.4552C20.1752 17.8212 20.2315 15.4687 21.599 14.0987C22.3022 13.3957 23.2559 13.0008 24.2502 13.0008C25.2446 13.0008 26.1983 13.3957 26.9015 14.0987L35.8027 23L26.9015 31.9012C26.1983 32.6043 25.2446 32.9992 24.2502 32.9992C23.2559 32.9992 22.3022 32.6043 21.599 31.9012C20.2302 30.5337 20.174 28.1775 21.4552 26.75H15.5002C13.4327 26.75 11.7502 25.0675 11.7502 23ZM27.4827 21.75H15.5002C15.1784 21.7644 14.8745 21.9024 14.6518 22.1352C14.4292 22.3681 14.3049 22.6778 14.3049 23C14.3049 23.3222 14.4292 23.6319 14.6518 23.8648C14.8745 24.0976 15.1784 24.2356 15.5002 24.25H27.4827L23.3665 28.3662C23.1389 28.6042 23.012 28.9208 23.012 29.25C23.012 29.5792 23.1389 29.8958 23.3665 30.1337C23.6009 30.3681 23.9188 30.4997 24.2502 30.4997C24.5817 30.4997 24.8996 30.3681 25.134 30.1337L32.2677 23L25.134 15.8662C24.8996 15.6319 24.5817 15.5003 24.2502 15.5003C23.9188 15.5003 23.6009 15.6319 23.3665 15.8662C23.1389 16.1042 23.012 16.4208 23.012 16.75C23.012 17.0792 23.1389 17.3958 23.3665 17.6337L27.4827 21.75Z" fill="white"/>
</svg>
