<svg width="101" height="95" viewBox="0 0 101 95" fill="none" xmlns="http://www.w3.org/2000/svg">
<rect x="0.25" y="0.25" width="100.5" height="94.5" rx="19.75" stroke="#AAAAAA" stroke-width="0.5"/>
<path d="M51 50.5V23L71 33L51 43" stroke="white" stroke-width="2" stroke-linecap="round" stroke-linejoin="round"/>
<path d="M72.4027 43.555C73.7331 47.6553 73.8575 52.0515 72.7613 56.2206C71.6651 60.3896 69.3943 64.156 66.2191 67.0717C63.0439 69.9873 59.098 71.9294 54.8508 72.667C50.6036 73.4046 46.2339 72.9066 42.2616 71.2322C38.2893 69.5578 34.8816 66.7776 32.4439 63.2222C30.0062 59.6669 28.6412 55.4861 28.5112 51.1773C28.3812 46.8685 29.4918 42.613 31.7107 38.9172C33.9296 35.2213 37.1635 32.2407 41.0277 30.33" stroke="white" stroke-width="2" stroke-linecap="round" stroke-linejoin="round"/>
<path d="M41.005 42.9926C39.7522 44.6601 38.9367 46.6146 38.6326 48.678C38.3285 50.7414 38.5456 52.8481 39.264 54.8062C39.9824 56.7642 41.1794 58.5114 42.7458 59.8885C44.3122 61.2656 46.1984 62.2288 48.2323 62.6905C50.2663 63.1521 52.3834 63.0975 54.3909 62.5315C56.3983 61.9656 58.2322 60.9063 59.7255 59.4503C61.2188 57.9942 62.3241 56.1876 62.9405 54.1951C63.557 52.2026 63.6651 50.0875 63.255 48.0426" stroke="white" stroke-width="2" stroke-linecap="round" stroke-linejoin="round"/>
</svg>
