<svg width="101" height="95" viewBox="0 0 101 95" fill="none" xmlns="http://www.w3.org/2000/svg">
<rect x="0.25" y="0.25" width="100.5" height="94.5" rx="19.75" stroke="#AAAAAA" stroke-width="0.5"/>
<path d="M77.25 21.75V74.25H21V21.75H32.25V18H36V21.75H62.25V18H66V21.75H77.25ZM24.75 25.5V33H73.5V25.5H66V29.25H62.25V25.5H36V29.25H32.25V25.5H24.75ZM73.5 70.5V36.75H24.75V70.5H73.5ZM60.6094 48L53.5488 53.5371L56.5078 62.7656L49.125 56.9941L41.7422 62.7656L44.7012 53.5371L37.6406 48H46.4883L49.125 39.7969L51.7617 48H60.6094Z" fill="white"/>
</svg>
