<svg width="101" height="95" viewBox="0 0 101 95" fill="none" xmlns="http://www.w3.org/2000/svg">
<rect x="0.25" y="0.25" width="100.5" height="94.5" rx="19.75" stroke="#AAAAAA" stroke-width="0.5"/>
<g clip-path="url(#clip0_115_307)">
<path fill-rule="evenodd" clip-rule="evenodd" d="M71.8677 53.2825H65.4177C65.0862 53.2825 64.7683 53.4142 64.5338 53.6486C64.2994 53.883 64.1677 54.201 64.1677 54.5325V61.165H57.5327C57.2012 61.165 56.8833 61.2967 56.6488 61.5311C56.4144 61.7655 56.2827 62.0835 56.2827 62.415V68.8675C56.2827 69.199 56.4144 69.5169 56.6488 69.7514C56.8833 69.9858 57.2012 70.1175 57.5327 70.1175H64.1652V76.75C64.1652 77.0815 64.2969 77.3994 64.5313 77.6339C64.7658 77.8683 65.0837 78 65.4152 78H71.8677C72.1992 78 72.5172 77.8683 72.7516 77.6339C72.986 77.3994 73.1177 77.0815 73.1177 76.75V70.1175H79.7502C80.0817 70.1175 80.3997 69.9858 80.6341 69.7514C80.8685 69.5169 81.0002 69.199 81.0002 68.8675V62.4175C81.0002 62.086 80.8685 61.768 80.6341 61.5336C80.3997 61.2992 80.0817 61.1675 79.7502 61.1675H73.1177V54.5325C73.1177 54.201 72.986 53.883 72.7516 53.6486C72.5172 53.4142 72.1992 53.2825 71.8677 53.2825Z" fill="black"/>
<path fill-rule="evenodd" clip-rule="evenodd" d="M71.8677 53.2825H65.4177C65.0862 53.2825 64.7683 53.4142 64.5338 53.6486C64.2994 53.883 64.1677 54.201 64.1677 54.5325V61.165H57.5327C57.2012 61.165 56.8833 61.2967 56.6488 61.5311C56.4144 61.7655 56.2827 62.0835 56.2827 62.415V68.8675C56.2827 69.199 56.4144 69.5169 56.6488 69.7514C56.8833 69.9858 57.2012 70.1175 57.5327 70.1175H64.1652V76.75C64.1652 77.0815 64.2969 77.3994 64.5313 77.6339C64.7658 77.8683 65.0837 78 65.4152 78H71.8677C72.1992 78 72.5172 77.8683 72.7516 77.6339C72.986 77.3994 73.1177 77.0815 73.1177 76.75V70.1175H79.7502C80.0817 70.1175 80.3997 69.9858 80.6341 69.7514C80.8685 69.5169 81.0002 69.199 81.0002 68.8675V62.415C81.0002 62.0835 80.8685 61.7655 80.6341 61.5311C80.3997 61.2967 80.0817 61.165 79.7502 61.165H73.1177V54.5325C73.1177 54.201 72.986 53.883 72.7516 53.6486C72.5172 53.4142 72.1992 53.2825 71.8677 53.2825Z" fill="white"/>
<path fill-rule="evenodd" clip-rule="evenodd" d="M47.0375 18.8074C46.7225 18.8074 46.4092 18.8133 46.0975 18.8249C41.6679 25.8681 38.993 33.8713 38.2975 42.1624H55.78C55.083 33.8708 52.4064 25.8676 47.975 18.8249C47.6618 18.8126 47.3484 18.8067 47.035 18.8074H47.0375ZM21.875 42.1624C22.6925 31.0174 30.75 21.8849 41.3675 19.4499C37.4933 26.4467 35.1627 34.1921 34.5325 42.1649H21.875V42.1624ZM41.3675 68.6299C30.75 66.1924 22.6925 57.0574 21.875 45.9124H34.5325C35.1623 53.8862 37.4929 61.6325 41.3675 68.6299ZM47.0375 69.2699C47.3525 69.2699 47.6658 69.2641 47.9775 69.2524C52.4075 62.2086 55.0824 54.2045 55.7775 45.9124H38.295C38.9909 54.2047 41.6666 62.2088 46.0975 69.2524C46.4092 69.2641 46.7225 69.2699 47.0375 69.2699ZM71.6675 49.5324C71.9308 48.3541 72.1083 47.1474 72.2 45.9124H59.5425C59.2318 49.8109 58.5171 53.6666 57.41 57.4174L57.5325 57.4149H60.415V54.5324C60.415 53.2063 60.9418 51.9346 61.8795 50.9969C62.8171 50.0592 64.0889 49.5324 65.415 49.5324H71.6675ZM59.5425 42.1624H72.2C71.38 31.0174 63.3225 21.8849 52.7075 19.4474C56.5817 26.4442 58.9123 34.1896 59.5425 42.1624Z" fill="white"/>
</g>
<defs>
<clipPath id="clip0_115_307">
<rect width="60" height="60" fill="white" transform="translate(21 18)"/>
</clipPath>
</defs>
</svg>
