<svg width="101" height="95" viewBox="0 0 101 95" fill="none" xmlns="http://www.w3.org/2000/svg">
<rect x="0.25" y="0.25" width="100.5" height="94.5" rx="19.75" stroke="#AAAAAA" stroke-width="0.5"/>
<g clip-path="url(#clip0_115_323)">
<path d="M51.0002 21.3333C45.726 21.3333 40.5703 22.8972 36.185 25.8274C31.7997 28.7576 28.3817 32.9223 26.3634 37.795C24.3451 42.6677 23.817 48.0295 24.8459 53.2023C25.8748 58.3752 28.4146 63.1267 32.144 66.8561C35.8734 70.5855 40.6249 73.1253 45.7978 74.1542C50.9706 75.1831 56.3324 74.655 61.2051 72.6367C66.0778 70.6184 70.2425 67.2004 73.1727 62.8151C76.1029 58.4298 77.6668 53.2741 77.6668 47.9999C77.6668 40.9275 74.8573 34.1447 69.8564 29.1437C64.8554 24.1428 58.0726 21.3333 51.0002 21.3333ZM68.4168 39.0499L46.5168 60.9333L33.5835 47.9999C33.1415 47.5579 32.8932 46.9584 32.8932 46.3333C32.8932 45.7081 33.1415 45.1086 33.5835 44.6666C34.0255 44.2246 34.6251 43.9762 35.2502 43.9762C35.8753 43.9762 36.4748 44.2246 36.9168 44.6666L46.5502 54.2999L65.1168 35.7499C65.3357 35.531 65.5956 35.3574 65.8815 35.239C66.1675 35.1205 66.474 35.0596 66.7835 35.0596C67.093 35.0596 67.3995 35.1205 67.6855 35.239C67.9715 35.3574 68.2313 35.531 68.4502 35.7499C68.669 35.9688 68.8427 36.2286 68.9611 36.5146C69.0796 36.8006 69.1405 37.1071 69.1405 37.4166C69.1405 37.7261 69.0796 38.0326 68.9611 38.3186C68.8427 38.6045 68.669 38.8644 68.4502 39.0833L68.4168 39.0499Z" fill="white"/>
</g>
<defs>
<clipPath id="clip0_115_323">
<rect width="60" height="60" fill="white" transform="translate(21 18)"/>
</clipPath>
</defs>
</svg>
