<svg width="47" height="52" viewBox="0 0 47 52" fill="none" xmlns="http://www.w3.org/2000/svg">
<path d="M23.499 28.5V1L43.499 11L23.499 21" stroke="white" stroke-width="2" stroke-linecap="round" stroke-linejoin="round"/>
<path d="M44.9017 21.555C46.2321 25.6553 46.3566 30.0515 45.2603 34.2206C44.1641 38.3896 41.8933 42.156 38.7181 45.0717C35.5429 47.9873 31.597 49.9294 27.3498 50.667C23.1026 51.4046 18.7329 50.9066 14.7606 49.2322C10.7883 47.5578 7.38059 44.7776 4.94292 41.2222C2.50525 37.6669 1.14022 33.4861 1.01023 29.1773C0.88025 24.8685 1.99078 20.613 4.20971 16.9172C6.42864 13.2213 9.66255 10.2407 13.5267 8.32996" stroke="white" stroke-width="2" stroke-linecap="round" stroke-linejoin="round"/>
<path d="M13.504 20.9926C12.2513 22.6601 11.4357 24.6146 11.1316 26.678C10.8275 28.7414 11.0446 30.8481 11.763 32.8062C12.4814 34.7642 13.6784 36.5114 15.2448 37.8885C16.8113 39.2656 18.6974 40.2288 20.7313 40.6905C22.7653 41.1521 24.8824 41.0975 26.8899 40.5315C28.8973 39.9656 30.7312 38.9063 32.2245 37.4503C33.7179 35.9942 34.8231 34.1876 35.4396 32.1951C36.056 30.2026 36.1641 28.0875 35.754 26.0426" stroke="white" stroke-width="2" stroke-linecap="round" stroke-linejoin="round"/>
</svg>
