<svg width="1252" height="1642" viewBox="0 0 1252 1642" fill="none" xmlns="http://www.w3.org/2000/svg">
<path d="M1134.5 100.5C1134.5 308.987 879.974 453.5 566 453.5C252.026 453.5 0 216.487 0 8C0 -200.487 252.026 -277 566 -277C879.974 -277 1134.5 -107.987 1134.5 100.5Z" fill="#223CCB"/>
<path d="M1660 1081.5C1660 1289.99 1564.47 1641.5 1250.5 1641.5C936.526 1641.5 579 1451.49 579 1243C579 1034.51 777.526 704 1091.5 704C1405.47 704 1660 873.013 1660 1081.5Z" fill="#192A55"/>
<path d="M1517 104.5C1517 312.987 987.132 772.958 992.473 773C626.093 773 332 184.987 332 -23.5C332 -231.987 487.23 -273 853.61 -273C1219.99 -273 1517 -103.987 1517 104.5Z" fill="#2B4BFE"/>
<path d="M1795 990.73C1795 1239.3 1241.58 1711 1197.25 1633.51C840.375 1633.51 543.614 1047.98 772.559 961.141C1036.8 860.919 151.172 220 508.046 220C864.919 220 1795 742.164 1795 990.73Z" fill="#2B4BFE"/>
<path d="M1277.56 784.77C1277.56 990.767 1770.14 -84.2227 1342.29 -84.2227C914.435 -84.2227 427.916 63.4789 427.916 -142.518C427.916 -348.515 242.625 244.305 670.476 244.305C1098.33 244.305 1277.56 578.773 1277.56 784.77Z" fill="#132040" fill-opacity="0.8"/>
</svg>
