<svg width="60" height="60" viewBox="0 0 60 60" fill="none" xmlns="http://www.w3.org/2000/svg">
<path fill-rule="evenodd" clip-rule="evenodd" d="M49.9927 34.4751H43.5427C43.2112 34.4751 42.8933 34.6068 42.6588 34.8412C42.4244 35.0756 42.2927 35.3936 42.2927 35.7251V42.3576H35.6577C35.3262 42.3576 35.0083 42.4893 34.7738 42.7237C34.5394 42.9581 34.4077 43.2761 34.4077 43.6076V50.0601C34.4077 50.3916 34.5394 50.7096 34.7738 50.944C35.0083 51.1784 35.3262 51.3101 35.6577 51.3101H42.2902V57.9426C42.2902 58.2741 42.4219 58.5921 42.6563 58.8265C42.8908 59.0609 43.2087 59.1926 43.5402 59.1926H49.9927C50.3242 59.1926 50.6422 59.0609 50.8766 58.8265C51.111 58.5921 51.2427 58.2741 51.2427 57.9426V51.3101H57.8752C58.2067 51.3101 58.5247 51.1784 58.7591 50.944C58.9935 50.7096 59.1252 50.3916 59.1252 50.0601V43.6101C59.1252 43.2786 58.9935 42.9606 58.7591 42.7262C58.5247 42.4918 58.2067 42.3601 57.8752 42.3601H51.2427V35.7251C51.2427 35.3936 51.111 35.0756 50.8766 34.8412C50.6422 34.6068 50.3242 34.4751 49.9927 34.4751Z" fill="black"/>
<path fill-rule="evenodd" clip-rule="evenodd" d="M49.9927 34.4751H43.5427C43.2112 34.4751 42.8933 34.6068 42.6588 34.8412C42.4244 35.0756 42.2927 35.3936 42.2927 35.7251V42.3576H35.6577C35.3262 42.3576 35.0083 42.4893 34.7738 42.7237C34.5394 42.9581 34.4077 43.2761 34.4077 43.6076V50.0601C34.4077 50.3916 34.5394 50.7096 34.7738 50.944C35.0083 51.1784 35.3262 51.3101 35.6577 51.3101H42.2902V57.9426C42.2902 58.2741 42.4219 58.5921 42.6563 58.8265C42.8908 59.0609 43.2087 59.1926 43.5402 59.1926H49.9927C50.3242 59.1926 50.6422 59.0609 50.8766 58.8265C51.111 58.5921 51.2427 58.2741 51.2427 57.9426V51.3101H57.8752C58.2067 51.3101 58.5247 51.1784 58.7591 50.944C58.9935 50.7096 59.1252 50.3916 59.1252 50.0601V43.6076C59.1252 43.2761 58.9935 42.9581 58.7591 42.7237C58.5247 42.4893 58.2067 42.3576 57.8752 42.3576H51.2427V35.7251C51.2427 35.3936 51.111 35.0756 50.8766 34.8412C50.6422 34.6068 50.3242 34.4751 49.9927 34.4751Z" fill="white"/>
<path fill-rule="evenodd" clip-rule="evenodd" d="M25.1625 5.84388e-05C24.8475 5.84388e-05 24.5342 0.00589177 24.2225 0.0175584C19.7929 7.06068 17.118 15.0639 16.4225 23.3551H33.905C33.208 15.0635 30.5314 7.06022 26.1 0.0175584C25.7868 0.00517871 25.4734 -0.000655898 25.16 5.84388e-05H25.1625ZM0 23.3551C0.8175 12.2101 8.875 3.07756 19.4925 0.642558C15.6183 7.63928 13.2877 15.3847 12.6575 23.3576H0V23.3551ZM19.4925 49.8226C8.875 47.3851 0.8175 38.2501 0 27.1051H12.6575C13.2873 35.0788 15.6179 42.8251 19.4925 49.8226ZM25.1625 50.4626C25.4775 50.4626 25.7908 50.4567 26.1025 50.4451C30.5325 43.4012 33.2074 35.3971 33.9025 27.1051H16.42C17.1159 35.3973 19.7916 43.4014 24.2225 50.4451C24.5342 50.4567 24.8475 50.4626 25.1625 50.4626ZM49.7925 30.7251C50.0558 29.5467 50.2333 28.3401 50.325 27.1051H37.6675C37.3568 31.0035 36.6421 34.8592 35.535 38.6101L35.6575 38.6076H38.54V35.7251C38.54 34.399 39.0668 33.1272 40.0045 32.1895C40.9421 31.2518 42.2139 30.7251 43.54 30.7251H49.7925ZM37.6675 23.3551H50.325C49.505 12.2101 41.4475 3.07756 30.8325 0.640058C34.7067 7.63678 37.0373 15.3822 37.6675 23.3551Z" fill="white"/>
</svg>
