<svg width="90" height="90" viewBox="0 0 90 90" fill="none" xmlns="http://www.w3.org/2000/svg">
<path fill-rule="evenodd" clip-rule="evenodd" d="M42.919 15.994C42.7554 15.7054 42.5183 15.4654 42.2317 15.2984C41.9451 15.1314 41.6194 15.0435 41.2877 15.0435C40.9561 15.0435 40.6303 15.1314 40.3437 15.2984C40.0572 15.4654 39.82 15.7054 39.6565 15.994L7.72523 72.199C7.5633 72.484 7.47891 72.8065 7.48049 73.1343C7.48207 73.4621 7.56956 73.7837 7.73423 74.0672C7.89891 74.3506 8.13501 74.5859 8.419 74.7496C8.70298 74.9133 9.02493 74.9998 9.35273 75.0002H73.2227C73.5508 75.0004 73.8733 74.9145 74.1578 74.751C74.4423 74.5876 74.6789 74.3523 74.844 74.0688C75.0092 73.7852 75.097 73.4633 75.0987 73.1352C75.1005 72.8071 75.0161 72.4843 74.854 72.199L66.3415 57.2177C63.2641 57.5665 60.152 57.0037 57.3917 55.5992C54.6313 54.1947 52.3443 52.0104 50.8145 49.3175C49.2847 46.6246 48.5796 43.5417 48.7866 40.4515C48.9936 37.3613 50.1037 34.4 51.979 31.9352L42.919 15.994ZM38.4377 42.1877C38.4377 41.4418 38.734 40.7264 39.2615 40.199C39.7889 39.6716 40.5043 39.3752 41.2502 39.3752C41.9962 39.3752 42.7115 39.6716 43.239 40.199C43.7664 40.7264 44.0627 41.4418 44.0627 42.1877V51.5627C44.0627 52.3087 43.7664 53.024 43.239 53.5515C42.7115 54.0789 41.9962 54.3752 41.2502 54.3752C40.5043 54.3752 39.7889 54.0789 39.2615 53.5515C38.734 53.024 38.4377 52.3087 38.4377 51.5627V42.1877ZM44.0627 58.1252V63.7502H38.4377V58.1252H44.0627Z" fill="black"/>
<path fill-rule="evenodd" clip-rule="evenodd" d="M54.0525 35.5876C53.0312 37.395 52.4963 39.4365 52.5 41.5126C52.4948 43.6032 53.0339 45.6592 54.0642 47.4784C55.0945 49.2975 56.5805 50.8172 58.3761 51.8879C60.1718 52.9587 62.2152 53.5436 64.3054 53.5852C66.3957 53.6267 68.4607 53.1236 70.2975 52.1251L77.6288 59.4526L82.5038 54.5776L75.1688 47.2463C76.7148 44.4462 77.0852 41.1465 76.1984 38.0732C75.3116 35 73.2402 32.4049 70.44 30.8588C67.6399 29.3128 64.3402 28.9424 61.2669 29.8293C58.1937 30.7161 55.5986 32.7874 54.0525 35.5876ZM69.7275 41.5126C69.7275 42.8831 69.1831 44.1975 68.214 45.1666C67.2449 46.1357 65.9305 46.6801 64.56 46.6801C63.1895 46.6801 61.8752 46.1357 60.9061 45.1666C59.937 44.1975 59.3925 42.8831 59.3925 41.5126C59.3925 40.1421 59.937 38.8277 60.9061 37.8586C61.8752 36.8895 63.1895 36.3451 64.56 36.3451C65.9305 36.3451 67.2449 36.8895 68.214 37.8586C69.1831 38.8277 69.7275 40.1421 69.7275 41.5126Z" fill="black"/>
</svg>
