<svg width="75" height="69" viewBox="0 0 75 69" fill="none" xmlns="http://www.w3.org/2000/svg">
<path d="M32.625 36.4688L29.4375 31.6875C29.125 31.1875 28.6875 30.7812 28.125 30.4688C27.5625 30.1562 26.9687 30 26.3437 30H1.78125C1.09375 28.375 0.625 26.8125 0.375 25.3125C0.125 23.8125 0 22.25 0 20.625C0 14.75 1.96875 9.84375 5.90625 5.90625C9.84375 1.96875 14.75 0 20.625 0C23.875 0 26.9688 0.6875 29.9063 2.0625C32.8438 3.4375 35.375 5.375 37.5 7.875C39.625 5.375 42.1562 3.4375 45.0938 2.0625C48.0312 0.6875 51.125 0 54.375 0C60.25 0 65.1562 1.96875 69.0938 5.90625C73.0312 9.84375 75 14.75 75 20.625C75 22.25 74.875 23.8125 74.625 25.3125C74.375 26.8125 73.9062 28.375 73.2188 30H50.9062L44.4375 20.4375C44.0625 19.875 43.5788 19.4538 42.9863 19.1737C42.3937 18.8937 41.7525 18.7525 41.0625 18.75C40.25 18.75 39.5475 18.985 38.955 19.455C38.3625 19.925 37.94 20.5338 37.6875 21.2812L32.625 36.4688ZM37.5 68.8125L32.0625 63.9375C25.5 58.0625 20.125 53.0312 15.9375 48.8438C11.75 44.6562 8.46875 40.875 6.09375 37.5H24.0938L30.5625 47.0625C30.9375 47.625 31.4225 48.0475 32.0175 48.33C32.6125 48.6125 33.2525 48.7525 33.9375 48.75C34.75 48.75 35.4538 48.5163 36.0487 48.0487C36.6437 47.5812 37.065 46.9712 37.3125 46.2188L42.375 30.9375L45.6562 35.8125C45.9688 36.3125 46.4062 36.7188 46.9688 37.0312C47.5312 37.3438 48.125 37.5 48.75 37.5H68.9062C66.5312 40.875 63.25 44.6562 59.0625 48.8438C54.875 53.0312 49.5 58.0625 42.9375 63.9375L37.5 68.8125Z" fill="black"/>
</svg>
