<svg width="90" height="90" viewBox="0 0 90 90" fill="none" xmlns="http://www.w3.org/2000/svg">
<path d="M41.25 7.5C24.6825 7.5 11.25 20.7937 11.25 37.1962C11.25 42.795 12.8138 48.0338 15.5363 52.5" stroke="black" stroke-width="1.5" stroke-linecap="round"/>
<path d="M54.375 41.25V48.75M65.625 41.25V48.75M54.375 11.25V18.75M65.625 11.25V18.75M48.75 24.375H41.25M48.75 35.625H41.25M78.75 24.375H71.25M78.75 35.625H71.25M63.75 18.75H56.25C52.7137 18.75 50.9475 18.75 49.8488 19.8488C48.75 20.9475 48.75 22.7137 48.75 26.25V33.75C48.75 37.2863 48.75 39.0525 49.8488 40.1512C50.9475 41.25 52.7137 41.25 56.25 41.25H63.75C67.2863 41.25 69.0525 41.25 70.1513 40.1512C71.25 39.0525 71.25 37.2863 71.25 33.75V26.25C71.25 22.7137 71.25 20.9475 70.1513 19.8488C69.0525 18.75 67.2863 18.75 63.75 18.75Z" stroke="black" stroke-width="1.5" stroke-linecap="round" stroke-linejoin="round"/>
<path d="M52.4999 71.25L52.0124 73.6762C51.4874 76.3275 51.2212 77.6512 50.6249 78.7012C49.7061 80.3196 48.2185 81.5385 46.4512 82.1213C45.3074 82.5 43.9499 82.5 41.2499 82.5C38.5499 82.5 37.1924 82.5 36.0487 82.125C34.2807 81.5414 32.793 80.321 31.8749 78.7012C31.2787 77.6512 31.0124 76.3275 30.4874 73.6762L29.9999 71.25M23.9362 64.1175C23.5912 63.0825 23.4187 62.5612 23.4374 62.1412C23.4586 61.707 23.6052 61.2882 23.8594 60.9354C24.1137 60.5827 24.4646 60.3112 24.8699 60.1538C25.2599 60 25.8074 60 26.8949 60H55.6049C56.6962 60 57.2399 60 57.6299 60.15C58.0358 60.3077 58.3871 60.5798 58.6414 60.9332C58.8957 61.2867 59.0419 61.7063 59.0624 62.1412C59.0812 62.5612 58.9087 63.0787 58.5637 64.1175C57.9262 66.0337 57.6074 66.9938 57.1162 67.77C56.0887 69.3923 54.478 70.5586 52.6162 71.0287C51.7237 71.25 50.7187 71.25 48.7049 71.25H33.7949C31.7812 71.25 30.7724 71.25 29.8837 71.025C28.0224 70.5558 26.4119 69.3909 25.3837 67.77C24.8924 66.9938 24.5737 66.0337 23.9362 64.1175Z" stroke="black" stroke-width="1.5"/>
</svg>
