<svg width="35" height="35" viewBox="0 0 35 35" fill="none" xmlns="http://www.w3.org/2000/svg">
<path d="M17.3251 13.329C19.1917 13.4165 19.673 15.0061 19.7022 15.7498H22.3126C22.1959 12.8623 20.1397 11.0978 17.2813 11.0978C14.0584 11.0978 11.6667 13.1248 11.6667 17.704C11.6667 20.5332 13.023 23.8873 17.2667 23.8873C20.5042 23.8873 22.2397 21.4811 22.2834 19.5853H19.673C19.6292 20.4457 19.0167 21.5978 17.2959 21.6853C15.3855 21.6269 14.5834 20.1394 14.5834 17.704C14.5834 13.4894 16.4501 13.3582 17.3251 13.329ZM17.5001 2.9165C9.45008 2.9165 2.91675 9.44984 2.91675 17.4998C2.91675 25.5498 9.45008 32.0832 17.5001 32.0832C25.5501 32.0832 32.0834 25.5498 32.0834 17.4998C32.0834 9.44984 25.5501 2.9165 17.5001 2.9165ZM17.5001 29.1665C11.0688 29.1665 5.83341 23.9311 5.83341 17.4998C5.83341 11.0686 11.0688 5.83317 17.5001 5.83317C23.9313 5.83317 29.1667 11.0686 29.1667 17.4998C29.1667 23.9311 23.9313 29.1665 17.5001 29.1665Z" fill="black"/>
</svg>
