<svg width="90" height="90" viewBox="0 0 90 90" fill="none" xmlns="http://www.w3.org/2000/svg">
<path d="M26.2498 52.5C24.6129 52.5024 22.9962 52.8621 21.5126 53.5538C20.029 54.2455 18.7143 55.2527 17.6601 56.505C16.6059 57.7573 15.8377 59.2245 15.4091 60.8044C14.9805 62.3842 14.9018 64.0385 15.1785 65.6519C15.4553 67.2653 16.0808 68.7988 17.0113 70.1455C17.9419 71.4922 19.1552 72.6196 20.5664 73.449C21.9777 74.2784 23.5529 74.7898 25.1822 74.9476C26.8115 75.1054 28.4557 74.9057 29.9998 74.3625" stroke="black" stroke-width="1.5" stroke-linecap="round" stroke-linejoin="round"/>
<path d="M15.9899 58.5187C13.7458 57.4383 11.806 55.8161 10.3456 53.7985C8.88524 51.7809 7.95024 49.4314 7.62502 46.9621C7.29979 44.4927 7.59457 41.9813 8.48275 39.6543C9.37092 37.3274 10.8245 35.2583 12.7124 33.6337M12.8249 33.3299C11.5951 31.4896 11.056 29.2735 11.3032 27.0739C11.5504 24.8743 12.5679 22.8332 14.1756 21.3117C15.7832 19.7903 17.8773 18.8868 20.0872 18.7611C22.2971 18.6354 24.4801 19.2956 26.2499 20.6249M27.1424 20.8687C26.5442 19.5976 26.2393 18.2083 26.2502 16.8035C26.2611 15.3988 26.5876 14.0144 27.2055 12.7528C27.8235 11.4912 28.717 10.3845 29.8202 9.5147C30.9233 8.64488 32.2078 8.03408 33.5788 7.72748C34.9497 7.42087 36.3721 7.42629 37.7407 7.74332C39.1092 8.06036 40.3891 8.68092 41.4856 9.55912C42.582 10.4373 43.4671 11.5507 44.0754 12.817C44.6837 14.0833 44.9997 15.4701 44.9999 16.8749M44.9999 16.8749V74.9999M44.9999 16.8749C45.0001 15.4701 45.3161 14.0833 45.9244 12.817C46.5327 11.5507 47.4178 10.4373 48.5143 9.55912C49.6108 8.68092 50.8906 8.06036 52.2592 7.74332C53.6278 7.42629 55.0501 7.42087 56.421 7.72748C57.792 8.03408 59.0765 8.64488 60.1797 9.5147C61.2828 10.3845 62.1764 11.4912 62.7943 12.7528C63.4122 14.0144 63.7387 15.3988 63.7496 16.8035C63.7606 18.2083 63.4556 19.5976 62.8574 20.8687M44.9999 74.9999C44.9999 76.9891 44.2097 78.8967 42.8032 80.3032C41.3967 81.7098 39.489 82.4999 37.4999 82.4999C35.5108 82.4999 33.6031 81.7098 32.1966 80.3032C30.7901 78.8967 29.9999 76.9891 29.9999 74.9999M44.9999 74.9999C44.9999 76.9891 45.7901 78.8967 47.1966 80.3032C48.6031 81.7098 50.5108 82.4999 52.4999 82.4999M44.9999 26.2499C44.9999 29.2336 46.1852 32.0951 48.295 34.2049C50.4048 36.3147 53.2662 37.4999 56.2499 37.4999M77.2874 33.6337C78.9247 35.0402 80.2382 36.7842 81.138 38.7462C82.0377 40.7081 82.5023 42.8415 82.4999 44.9999C82.4999 47.6362 81.8212 50.1149 80.6249 52.2674M77.1749 33.3299C78.4048 31.4896 78.9438 29.2735 78.6966 27.0739C78.4494 24.8743 77.4319 22.8332 75.8243 21.3117C74.2166 19.7903 72.1225 18.8868 69.9126 18.7611C67.7028 18.6354 65.5197 19.2956 63.7499 20.6249M76.8749 76.8749L82.4999 82.4999M59.9999 69.3749C59.9999 71.8613 60.9876 74.2459 62.7458 76.0041C64.5039 77.7622 66.8885 78.7499 69.3749 78.7499C71.8613 78.7499 74.2459 77.7622 76.004 76.0041C77.7622 74.2459 78.7499 71.8613 78.7499 69.3749C78.7499 66.8885 77.7622 64.504 76.004 62.7458C74.2459 60.9877 71.8613 59.9999 69.3749 59.9999C66.8885 59.9999 64.5039 60.9877 62.7458 62.7458C60.9876 64.504 59.9999 66.8885 59.9999 69.3749Z" stroke="black" stroke-width="1.5" stroke-linecap="round" stroke-linejoin="round"/>
</svg>
