<svg width="60" height="60" viewBox="0 0 60 60" fill="none" xmlns="http://www.w3.org/2000/svg">
<g clip-path="url(#clip0_97_414)">
<path d="M15.375 30C16.125 32.25 16.5 34.125 16.5 34.125C19.5 39 23.25 38.25 23.25 40.875C23.25 42 22.5 43.125 21.375 43.5L30 50.25L38.625 43.875C37.5 43.125 36.75 42.375 36.75 41.25C36.75 38.25 40.5 39.375 43.5 34.5C43.5 34.5 44.25 33 44.625 30.375C45.75 26.25 46.875 18.75 46.5 15H40.875C40.875 13.875 41.25 12.75 41.25 11.25H45.375C44.25 6 41.625 3.75 37.125 2.625C35.25 1.125 32.625 0 30 0C27.375 0 24.75 1.125 22.875 2.625C18.375 3.75 16.125 6 14.625 11.25H18.75C18.75 12.75 19.125 13.875 19.5 15H13.5C13.125 18.75 14.25 26.25 15.375 30ZM42 31.875L40.875 33L39 35.25C37.5 37.125 36 38.25 33.75 38.625L32.25 39C30.75 39.375 28.875 39.375 27 39L25.5 38.625C23.25 37.875 21.375 36.75 19.875 34.5L19.125 33L18 31.875L15.375 30L27 26.625C28.875 26.25 30.75 25.875 32.625 26.625L44.625 30L42 31.875ZM22.5 11.25C22.5 7.125 25.875 3.75 30 3.75C34.125 3.75 37.5 7.125 37.5 11.25C37.5 15.375 34.125 18.75 30 18.75C25.875 18.75 22.5 15.375 22.5 11.25Z" fill="black"/>
<path d="M58.125 53.25C53.25 44.25 48.375 45.75 43.5 45H43.125L30 54.75L16.875 45H16.5C11.25 45.375 6.75 44.25 1.875 53.25C1.125 54.75 0.375 57.375 0 60H60C59.625 57.375 58.875 54.75 58.125 53.25Z" fill="black"/>
</g>
<defs>
<clipPath id="clip0_97_414">
<rect width="60" height="60" fill="white"/>
</clipPath>
</defs>
</svg>
