<svg width="40" height="40" viewBox="0 0 40 40" fill="none" xmlns="http://www.w3.org/2000/svg">
<path d="M6.66665 33.3332C5.74998 33.3332 4.96554 33.0071 4.31331 32.3548C3.66109 31.7026 3.33442 30.9176 3.33331 29.9998V9.99984C3.33331 9.08317 3.65998 8.29873 4.31331 7.6465C4.96665 6.99428 5.75109 6.66762 6.66665 6.6665H33.3333C34.25 6.6665 35.035 6.99317 35.6883 7.6465C36.3416 8.29984 36.6678 9.08428 36.6666 9.99984V29.9998C36.6666 30.9165 36.3405 31.7015 35.6883 32.3548C35.0361 33.0082 34.2511 33.3343 33.3333 33.3332H6.66665ZM20 21.6665L6.66665 13.3332V29.9998H33.3333V13.3332L20 21.6665ZM20 18.3332L33.3333 9.99984H6.66665L20 18.3332ZM6.66665 13.3332V9.99984V29.9998V13.3332Z" fill="black"/>
</svg>
