<svg width="25" height="25" viewBox="0 0 25 25" fill="none" xmlns="http://www.w3.org/2000/svg">
<path d="M18.75 4.16683H2.08334V2.0835H18.75V4.16683ZM18.2292 13.5418H16.6667V18.7502L20.4271 21.0002L21.2083 19.7293L18.2292 17.9689V13.5418ZM25 17.7085C25 21.7397 21.7396 25.0002 17.7083 25.0002C14.0313 25.0002 11.0104 22.2814 10.5 18.7502H2.08334V12.5002H1.04167V10.4168L2.08334 5.2085H18.75L19.7917 10.4168V10.7189C22.8021 11.6252 25 14.4064 25 17.7085ZM4.16667 16.6668H10.4167V12.5002H4.16667V16.6668ZM22.9167 17.7085C22.9167 14.8335 20.5833 12.5002 17.7083 12.5002C14.8333 12.5002 12.5 14.8335 12.5 17.7085C12.5 20.5835 14.8333 22.9168 17.7083 22.9168C20.5833 22.9168 22.9167 20.5835 22.9167 17.7085Z" fill="black"/>
</svg>
