<svg width="90" height="90" viewBox="0 0 90 90" fill="none" xmlns="http://www.w3.org/2000/svg">
<path d="M39.1358 45.9998V45.9858C39.9866 45.6539 40.5477 44.9212 40.5477 43.5375C40.5477 41.5673 39.2666 40.6743 37.3077 40.6743C36.3712 40.6743 35.5232 40.7025 34.6133 40.8037V50.3465H36.4724V46.575H37.4371C37.6818 46.575 37.7394 46.7043 37.8112 46.9772L38.6929 50.3451H40.6349L39.4677 46.4442C39.4101 46.2023 39.3383 46.0575 39.1358 45.9998ZM37.5088 45.0914H36.4724V42.1847C36.7762 42.1565 37.078 42.142 37.378 42.1411C38.489 42.1411 38.7182 42.8034 38.7182 43.6514C38.7182 44.6597 38.3596 45.0914 37.5088 45.0914ZM51.9271 46.1447H54.4513V44.6034H51.9271V42.3014H54.7255V40.7461H50.0722V50.3465H54.8394V48.8334H51.9271V46.1447ZM14.7458 46.1447H17.2672V44.6034H14.7458V42.3014H17.5401V40.7461H12.8882V50.3465H17.6568V48.8334H14.7472L14.7458 46.1447ZM30.1752 46.1447H32.6994V44.6034H30.1752V42.3014H32.9722V40.7461H28.319V50.3465H33.0862V48.8334H30.1752V46.1447ZM22.8135 44.3868L20.9263 40.7461H19.184V50.3465H20.9994V44.1436L22.8149 47.7843L24.6149 44.1295H24.6726V50.3465H26.4149V40.7461H24.6726L22.8135 44.3868ZM45.4766 46.5595H46.7844V46.904C46.7844 47.8997 46.641 49.0219 45.4035 49.0219C43.7905 49.0219 43.7483 46.7339 43.7483 45.554C43.7483 44.3854 43.8651 42.1706 45.4626 42.1706C46.2107 42.1706 46.5707 42.5869 46.9869 43.1044L48.0107 41.7361C47.2738 41.0048 46.5116 40.5844 45.4893 40.5844C42.7682 40.5844 41.8007 43.1761 41.8007 45.5639C41.8007 47.9264 42.681 50.5026 45.3458 50.5026C47.9502 50.5026 48.4705 48.2414 48.4705 46.1545V45.0337H45.4752L45.4766 46.5595ZM73.7422 50.3465H75.5872V46.6762L78.0215 40.7447H76.1329L74.6788 45.1195L73.2233 40.7447H71.2349L73.7436 46.7761L73.7422 50.3465ZM56.368 50.3465H58.1835V44.4178H58.2271L61.3096 50.3465H62.9366V40.7461H61.1366V46.4301H61.1099L58.1694 40.7447H56.3694L56.368 50.3465Z" fill="black"/>
<path d="M78.262 1.16162H11.6691C5.95125 1.16162 0.597656 6.52646 0.597656 12.2429V78.8176C0.597656 84.5368 5.97234 89.9283 11.693 89.9283H78.2648C83.9827 89.9283 89.3672 84.5649 89.3672 78.8471V12.2513C89.3672 6.5349 83.9827 1.16303 78.262 1.16303V1.16162ZM80.5275 57.3891H56.8322V81.0605H33.1383V57.3891H9.43594V33.7008H33.1383V10.0294H56.8322V33.7008H80.5275V57.3891Z" fill="black"/>
<path d="M68.1524 50.504C69.3323 50.5054 70.2548 49.957 70.8904 49.1793L69.9398 47.8251C69.4645 48.4579 69.0356 48.9333 68.2537 48.9333C66.756 48.9333 66.4945 46.8478 66.4945 45.5526C66.4945 43.8244 66.8981 42.1692 68.2115 42.1692C68.9188 42.1692 69.3084 42.6431 69.7232 43.2787L70.8341 41.9667C70.0959 41.0906 69.3618 40.5844 68.2396 40.5844C65.5748 40.5844 64.551 43.0889 64.551 45.5526C64.551 48.1584 65.5017 50.504 68.1524 50.504Z" fill="black"/>
</svg>
