<svg width="120" height="120" viewBox="0 0 120 120" fill="none" xmlns="http://www.w3.org/2000/svg">
<path d="M63.4125 29.1618V26.8012H66.4969V25.3087C66.4969 22.6537 68.8163 20.5068 71.6869 20.5068C74.5519 20.5068 76.8713 22.6537 76.8713 25.3087V26.8012H79.8881V29.1618H63.4125ZM101.621 88.8375C101.621 91.7577 100.461 94.5584 98.3962 96.6234C96.3313 98.6883 93.5306 99.8484 90.6103 99.8484C87.6901 99.8484 84.8894 98.6883 82.8244 96.6234C80.7595 94.5584 79.5994 91.7577 79.5994 88.8375C79.5994 85.9172 80.7595 83.1165 82.8244 81.0516C84.8894 78.9866 87.6901 77.8265 90.6103 77.8265C93.5306 77.8265 96.3313 78.9866 98.3962 81.0516C100.461 83.1165 101.621 85.9172 101.621 88.8375ZM95.8781 88.8375C95.8781 87.4408 95.3233 86.1014 94.3358 85.1139C93.3482 84.1263 92.0088 83.5715 90.6122 83.5715C89.2156 83.5715 87.8762 84.1263 86.8886 85.1139C85.9011 86.1014 85.3463 87.4408 85.3463 88.8375C85.3331 89.5374 85.4595 90.2329 85.7182 90.8833C85.9769 91.5338 86.3627 92.1261 86.853 92.6258C87.3433 93.1254 87.9283 93.5223 88.5737 93.7932C89.2192 94.0642 89.9122 94.2037 90.6122 94.2037C91.3122 94.2037 92.0052 94.0642 92.6507 93.7932C93.2962 93.5223 93.8811 93.1254 94.3714 92.6258C94.8617 92.1261 95.2475 91.5338 95.5062 90.8833C95.7649 90.2329 95.8913 89.5374 95.8781 88.8375ZM38.5669 88.7325C38.5669 90.1789 38.2819 91.6111 37.7283 92.9474C37.1747 94.2837 36.3632 95.4978 35.3403 96.5204C34.3173 97.543 33.1029 98.354 31.7665 98.9072C30.43 99.4604 28.9977 99.7448 27.5513 99.7443C24.6654 99.6911 21.9158 98.5073 19.8938 96.4476C17.8717 94.3879 16.7389 91.6169 16.7389 88.7306C16.7389 85.8443 17.8717 83.0732 19.8938 81.0135C21.9158 78.9539 24.6654 77.7701 27.5513 77.7168C30.4725 77.7178 33.2738 78.8787 35.3394 80.9443C37.405 83.01 38.5659 85.8112 38.5669 88.7325ZM32.8425 88.7418C32.8415 87.3451 32.286 86.006 31.298 85.0187C30.31 84.0314 28.9705 83.4768 27.5738 83.4768C26.5316 83.4768 25.5128 83.7859 24.6462 84.365C23.7797 84.9441 23.1044 85.7672 22.7057 86.7302C22.3071 87.6931 22.2029 88.7527 22.4065 89.7748C22.6101 90.797 23.1123 91.7358 23.8495 92.4725C24.5868 93.2092 25.5259 93.7107 26.5482 93.9136C27.5705 94.1164 28.63 94.0116 29.5926 93.6122C30.5553 93.2128 31.3779 92.5369 31.9564 91.67C32.5349 90.8031 32.8433 89.784 32.8425 88.7418Z" fill="black"/>
<path d="M109.102 57.5158C112.393 58.1571 114.362 59.5764 115.847 67.6971L118.196 82.3502C119.042 87.1183 116.347 88.8583 112.987 88.8583H104.917C104.917 80.9571 98.5162 74.5296 90.615 74.5296C82.7137 74.5296 76.305 80.9571 76.305 88.8583H41.8181C41.8181 80.9571 35.4131 74.5296 27.5119 74.5296C19.6069 74.5296 13.2037 80.9571 13.2037 88.8583H6.51749C4.16249 88.8583 2.32874 87.0752 2.32874 84.7746V36.5908C2.32874 33.9658 4.40061 31.8564 6.94124 31.8564H93.525C96.8156 31.8564 99.2212 33.4896 100.41 36.3527L109.102 57.5177V57.5158ZM80.2406 36.7671V56.7827H103.384L95.265 36.7671H80.2406ZM59.5369 54.2139V41.9327H47.2556V54.2139H34.9725V66.4971H47.2556V78.7764H59.5369V66.4971H71.8181V54.2139H59.5369Z" fill="white"/>
</svg>
