<svg width="30" height="30" viewBox="0 0 30 30" fill="none" xmlns="http://www.w3.org/2000/svg">
<g clip-path="url(#clip0_115_302)">
<path fill-rule="evenodd" clip-rule="evenodd" d="M14.1165 19.6338C14.3509 19.8681 14.6688 19.9998 15.0002 19.9998C15.3317 19.9998 15.6496 19.8681 15.884 19.6338L22.9552 12.5625C23.1829 12.3268 23.3089 12.011 23.3061 11.6833C23.3032 11.3555 23.1718 11.042 22.94 10.8102C22.7082 10.5785 22.3947 10.447 22.067 10.4442C21.7392 10.4413 21.4235 10.5673 21.1877 10.795L15.0002 16.9825L8.81273 10.795C8.57697 10.5673 8.26122 10.4413 7.93347 10.4442C7.60573 10.447 7.29221 10.5785 7.06045 10.8102C6.82869 11.042 6.69723 11.3555 6.69438 11.6833C6.69154 12.011 6.81753 12.3268 7.04523 12.5625L14.1165 19.6338Z" fill="white"/>
</g>
<defs>
<clipPath id="clip0_115_302">
<rect width="30" height="30" fill="white" transform="matrix(1 0 0 -1 0 30)"/>
</clipPath>
</defs>
</svg>
