<svg width="30" height="30" viewBox="0 0 30 30" fill="none" xmlns="http://www.w3.org/2000/svg">
<g clip-path="url(#clip0_115_276)">
<path fill-rule="evenodd" clip-rule="evenodd" d="M14.1165 10.3662C14.3509 10.1319 14.6688 10.0002 15.0002 10.0002C15.3317 10.0002 15.6496 10.1319 15.884 10.3662L22.9552 17.4375C23.1829 17.6732 23.3089 17.989 23.3061 18.3167C23.3032 18.6445 23.1718 18.958 22.94 19.1898C22.7082 19.4215 22.3947 19.553 22.067 19.5558C21.7392 19.5587 21.4235 19.4327 21.1877 19.205L15.0002 13.0175L8.81273 19.205C8.57697 19.4327 8.26122 19.5587 7.93347 19.5558C7.60573 19.553 7.29221 19.4215 7.06045 19.1898C6.82869 18.958 6.69723 18.6445 6.69438 18.3167C6.69154 17.989 6.81753 17.6732 7.04523 17.4375L14.1165 10.3662Z" fill="white"/>
</g>
<defs>
<clipPath id="clip0_115_276">
<rect width="30" height="30" fill="white"/>
</clipPath>
</defs>
</svg>
