<svg width="119" height="119" viewBox="0 0 119 119" fill="none" xmlns="http://www.w3.org/2000/svg">
<path d="M60.2372 59.647C66.8322 59.647 72.1785 54.3007 72.1785 47.7057C72.1785 41.1107 66.8322 35.7644 60.2372 35.7644C53.6422 35.7644 48.2959 41.1107 48.2959 47.7057C48.2959 54.3007 53.6422 59.647 60.2372 59.647Z" fill="white"/>
<path d="M86.8915 48.1123C86.8915 32.7167 75.1022 20.1936 60.6074 20.1936C46.1125 20.1936 34.3232 32.7167 34.3232 48.1189C34.3265 48.8875 34.6918 67.306 55.7432 99.76C56.1764 100.65 56.8333 101.413 57.6498 101.973C58.4662 102.534 59.4141 102.872 60.4008 102.956C63.4419 102.956 65.5145 99.6079 65.7161 99.2675C86.9031 66.7953 86.9031 48.8445 86.8915 48.1123ZM60.6074 59.3578C58.292 59.3578 56.0287 58.6712 54.1035 57.3849C52.1784 56.0986 50.6779 54.2702 49.7919 52.1311C48.9058 49.992 48.674 47.6382 49.1257 45.3673C49.5774 43.0965 50.6923 41.0106 52.3295 39.3734C53.9667 37.7362 56.0527 36.6212 58.3235 36.1695C60.5944 35.7178 62.9482 35.9496 65.0873 36.8357C67.2264 37.7217 69.0547 39.2222 70.3411 41.1473C71.6274 43.0725 72.314 45.3358 72.314 47.6512C72.3109 50.755 71.0766 53.7309 68.8818 55.9257C66.6871 58.1204 63.7112 59.3548 60.6074 59.3578Z" fill="#D22F27"/>
<path d="M86.8914 48.1123C86.8914 32.7167 75.1021 20.1936 60.6072 20.1936C58.4492 20.2036 56.3017 20.4953 54.2192 21.0613C68.0943 21.8051 79.1762 33.991 79.1762 48.9106C79.1861 49.6428 79.1861 67.592 57.9991 100.064C57.7131 100.529 57.3892 100.97 57.0306 101.381C57.8901 102.347 59.1082 102.915 60.4023 102.958C63.4417 102.958 65.5143 99.6079 65.716 99.2675C86.9029 66.7953 86.9029 48.8445 86.8914 48.1123Z" fill="#EA5A47"/>
<path d="M60.401 102.958C59.4144 102.874 58.4667 102.535 57.6506 101.974C56.8345 101.413 56.1779 100.651 55.7451 99.76C34.692 67.306 34.3267 48.8891 34.3218 48.1189C34.3218 32.715 46.1127 20.1936 60.6076 20.1936C75.1024 20.1936 86.8917 32.7167 86.8917 48.1123C86.9033 48.8462 86.9033 66.7953 65.7163 99.2658C65.5147 99.6079 63.4404 102.958 60.401 102.958Z" stroke="black" stroke-width="0.5" stroke-linecap="round" stroke-linejoin="round"/>
<path d="M60.6075 59.3578C58.2922 59.3578 56.0288 58.6713 54.1037 57.3849C52.1785 56.0986 50.678 54.2702 49.792 52.1311C48.906 49.992 48.6741 47.6382 49.1258 45.3674C49.5775 43.0965 50.6925 41.0106 52.3297 39.3734C53.9669 37.7362 56.0528 36.6212 58.3237 36.1695C60.5945 35.7178 62.9483 35.9497 65.0874 36.8357C67.2265 37.7217 69.0549 39.2222 70.3412 41.1474C71.6276 43.0725 72.3141 45.3359 72.3141 47.6512C72.3111 50.7551 71.0767 53.7309 68.882 55.9257C66.6872 58.1204 63.7114 59.3548 60.6075 59.3578Z" stroke="black" stroke-width="0.5" stroke-linecap="round" stroke-linejoin="round"/>
</svg>
