<svg width="68" height="65" viewBox="0 0 68 65" fill="none" xmlns="http://www.w3.org/2000/svg">
<path fill-rule="evenodd" clip-rule="evenodd" d="M52.5 24.6338C56.4782 24.6338 60.2936 26.2142 63.1066 29.0272C65.9196 31.8403 67.5 35.6556 67.5 39.6338C67.5 46.9163 64.3688 52.7476 59.4488 56.8651C54.615 60.9113 48.18 63.2213 41.4375 63.9863C28.0575 65.5013 12.1463 61.0238 2.7225 49.5113C2.09245 48.7415 1.79399 47.753 1.8928 46.7631C1.99161 45.7733 2.47958 44.8632 3.24937 44.2332C4.01917 43.6031 5.00772 43.3047 5.99756 43.4035C6.9874 43.5023 7.89745 43.9903 8.5275 44.7601C15.9788 53.8726 29.13 57.8326 40.5938 56.5351C43.6019 56.2189 46.5478 55.466 49.3387 54.3001C45.7263 53.5118 42.5321 51.4173 40.3691 48.4186C38.206 45.4198 37.2264 41.7279 37.6183 38.0513C38.0101 34.3746 39.7458 30.9721 42.4922 28.4966C45.2387 26.021 48.8025 24.6468 52.5 24.6376M52.5 32.1376C50.5109 32.1376 48.6032 32.9277 47.1967 34.3343C45.7902 35.7408 45 37.6484 45 39.6376C45 41.6267 45.7902 43.5343 47.1967 44.9409C48.6032 46.3474 50.5109 47.1376 52.5 47.1376C54.4891 47.1376 56.3968 46.3474 57.8033 44.9409C59.2098 43.5343 60 41.6267 60 39.6376C60 37.6484 59.2098 35.7408 57.8033 34.3343C56.3968 32.9277 54.4891 32.1376 52.5 32.1376ZM64.7775 14.7638C65.4076 15.5336 65.706 16.5222 65.6072 17.512C65.5084 18.5018 65.0204 19.4119 64.2506 20.0419C63.4808 20.672 62.4923 20.9704 61.5024 20.8716C60.5126 20.7728 59.6026 20.2849 58.9725 19.5151C51.5212 10.4026 38.37 6.44257 26.9062 7.74007C23.8993 8.0602 20.954 8.81167 18.1612 9.97132C21.7737 10.7596 24.9679 12.8541 27.1309 15.8528C29.294 18.8516 30.2736 22.5435 29.8817 26.2201C29.4899 29.8968 27.7542 33.2993 25.0078 35.7748C22.2613 38.2504 18.6975 39.6246 15 39.6338C11.0218 39.6338 7.20644 38.0535 4.3934 35.2404C1.58035 32.4274 0 28.6121 0 24.6338C0 17.3551 3.13125 11.5201 8.05125 7.40257C12.885 3.36007 19.32 1.04632 26.0625 0.285068C39.4425 -1.22993 55.3538 3.25132 64.7775 14.7638ZM15 17.1338C13.0109 17.1338 11.1032 17.924 9.6967 19.3305C8.29018 20.737 7.5 22.6447 7.5 24.6338C7.5 26.6229 8.29018 28.5306 9.6967 29.9371C11.1032 31.3436 13.0109 32.1338 15 32.1338C16.9891 32.1338 18.8968 31.3436 20.3033 29.9371C21.7098 28.5306 22.5 26.6229 22.5 24.6338C22.5 22.6447 21.7098 20.737 20.3033 19.3305C18.8968 17.924 16.9891 17.1338 15 17.1338Z" fill="black"/>
</svg>
