<svg width="120" height="120" viewBox="0 0 120 120" fill="none" xmlns="http://www.w3.org/2000/svg">
<path fill-rule="evenodd" clip-rule="evenodd" d="M53.75 10H63.75C73.18 10 77.89 10 80.82 12.93C83.75 15.86 83.75 20.57 83.75 30V106.25H108.75C109.745 106.25 110.698 106.645 111.402 107.348C112.105 108.052 112.5 109.005 112.5 110C112.5 110.995 112.105 111.948 111.402 112.652C110.698 113.355 109.745 113.75 108.75 113.75H8.75C7.75544 113.75 6.80161 113.355 6.09835 112.652C5.39509 111.948 5 110.995 5 110C5 109.005 5.39509 108.052 6.09835 107.348C6.80161 106.645 7.75544 106.25 8.75 106.25H33.75V30C33.75 20.57 33.75 15.86 36.68 12.93C39.61 10 44.32 10 53.75 10ZM58.75 21.25C59.7446 21.25 60.6984 21.6451 61.4016 22.3483C62.1049 23.0516 62.5 24.0054 62.5 25V31.25H68.75C69.7446 31.25 70.6984 31.6451 71.4016 32.3483C72.1049 33.0516 72.5 34.0054 72.5 35C72.5 35.9946 72.1049 36.9484 71.4016 37.6517C70.6984 38.3549 69.7446 38.75 68.75 38.75H62.5V45C62.5 45.9946 62.1049 46.9484 61.4016 47.6516C60.6984 48.3549 59.7446 48.75 58.75 48.75C57.7554 48.75 56.8016 48.3549 56.0984 47.6516C55.3951 46.9484 55 45.9946 55 45V38.75H48.75C47.7554 38.75 46.8016 38.3549 46.0984 37.6517C45.3951 36.9484 45 35.9946 45 35C45 34.0054 45.3951 33.0516 46.0984 32.3483C46.8016 31.6451 47.7554 31.25 48.75 31.25H55V25C55 24.0054 55.3951 23.0516 56.0984 22.3483C56.8016 21.6451 57.7554 21.25 58.75 21.25ZM45 60C45 59.0054 45.3951 58.0516 46.0984 57.3484C46.8016 56.6451 47.7554 56.25 48.75 56.25H68.75C69.7446 56.25 70.6984 56.6451 71.4016 57.3484C72.1049 58.0516 72.5 59.0054 72.5 60C72.5 60.9946 72.1049 61.9484 71.4016 62.6516C70.6984 63.3549 69.7446 63.75 68.75 63.75H48.75C47.7554 63.75 46.8016 63.3549 46.0984 62.6516C45.3951 61.9484 45 60.9946 45 60ZM45 75C45 74.0054 45.3951 73.0516 46.0984 72.3484C46.8016 71.6451 47.7554 71.25 48.75 71.25H68.75C69.7446 71.25 70.6984 71.6451 71.4016 72.3484C72.1049 73.0516 72.5 74.0054 72.5 75C72.5 75.9946 72.1049 76.9484 71.4016 77.6516C70.6984 78.3549 69.7446 78.75 68.75 78.75H48.75C47.7554 78.75 46.8016 78.3549 46.0984 77.6516C45.3951 76.9484 45 75.9946 45 75ZM58.75 91.25C59.7446 91.25 60.6984 91.6451 61.4016 92.3483C62.1049 93.0516 62.5 94.0054 62.5 95V106.25H55V95C55 94.0054 55.3951 93.0516 56.0984 92.3483C56.8016 91.6451 57.7554 91.25 58.75 91.25Z" fill="white"/>
<path opacity="0.5" d="M104.565 29.445C106.25 31.965 106.25 35.475 106.25 42.5V106.25H108.75C109.745 106.25 110.698 106.645 111.402 107.348C112.105 108.052 112.5 109.005 112.5 110C112.5 110.995 112.105 111.948 111.402 112.652C110.698 113.355 109.745 113.75 108.75 113.75H8.75C7.75544 113.75 6.80161 113.355 6.09835 112.652C5.39509 111.948 5 110.995 5 110C5 109.005 5.39509 108.052 6.09835 107.348C6.80161 106.645 7.75544 106.25 8.75 106.25H11.25V42.5C11.25 35.475 11.25 31.965 12.935 29.445C13.6648 28.3526 14.6026 27.4148 15.695 26.685C17.9 25.21 28.38 25.025 33.785 25.005C33.7683 26.4617 33.7617 27.9783 33.765 29.555V36.25H21.25C20.2554 36.25 19.3016 36.6451 18.5983 37.3483C17.8951 38.0516 17.5 39.0054 17.5 40C17.5 40.9946 17.8951 41.9484 18.5983 42.6516C19.3016 43.3549 20.2554 43.75 21.25 43.75H33.765V51.25H21.25C20.2554 51.25 19.3016 51.6451 18.5983 52.3484C17.8951 53.0516 17.5 54.0054 17.5 55C17.5 55.9946 17.8951 56.9484 18.5983 57.6516C19.3016 58.3549 20.2554 58.75 21.25 58.75H33.765V66.25H21.25C20.2554 66.25 19.3016 66.6451 18.5983 67.3484C17.8951 68.0516 17.5 69.0054 17.5 70C17.5 70.9946 17.8951 71.9484 18.5983 72.6516C19.3016 73.3549 20.2554 73.75 21.25 73.75H33.765V106.25H83.765V73.75H96.25C97.2446 73.75 98.1984 73.3549 98.9017 72.6516C99.6049 71.9484 100 70.9946 100 70C100 69.0054 99.6049 68.0516 98.9017 67.3484C98.1984 66.6451 97.2446 66.25 96.25 66.25H83.765V58.75H96.25C97.2446 58.75 98.1984 58.3549 98.9017 57.6516C99.6049 56.9484 100 55.9946 100 55C100 54.0054 99.6049 53.0516 98.9017 52.3484C98.1984 51.6451 97.2446 51.25 96.25 51.25H83.765V43.75H96.25C97.2446 43.75 98.1984 43.3549 98.9017 42.6516C99.6049 41.9484 100 40.9946 100 40C100 39.0054 99.6049 38.0516 98.9017 37.3483C98.1984 36.6451 97.2446 36.25 96.25 36.25H83.765V29.55C83.7683 27.98 83.7617 26.4633 83.745 25C89.15 25.025 99.595 25.21 101.805 26.685C102.897 27.4148 103.835 28.3526 104.565 29.445Z" fill="white"/>
</svg>
