<svg width="90" height="90" viewBox="0 0 90 90" fill="none" xmlns="http://www.w3.org/2000/svg">
<path fill-rule="evenodd" clip-rule="evenodd" d="M44.9286 2.33643C47.2647 2.33735 49.5902 2.65011 51.8436 3.26643V16.8714C51.8436 17.6188 52.1405 18.3356 52.669 18.8641C53.1975 19.3926 53.9143 19.6896 54.6617 19.6896C55.4091 19.6896 56.1259 19.3926 56.6544 18.8641C57.1829 18.3356 57.4798 17.6188 57.4798 16.8714V5.53893C61.433 7.69843 64.7619 10.8416 67.1446 14.6643C69.5273 18.487 70.8832 22.86 71.0811 27.3602H18.7761C18.9739 22.86 20.3298 18.487 22.7125 14.6643C25.0953 10.8416 28.4242 7.69843 32.3773 5.53893V16.8752C32.3773 17.6226 32.6742 18.3394 33.2027 18.8679C33.7312 19.3964 34.448 19.6933 35.1954 19.6933C35.9429 19.6933 36.6597 19.3964 37.1882 18.8679C37.7167 18.3394 38.0136 17.6226 38.0136 16.8752V3.26268C40.2659 2.64795 42.5901 2.33646 44.9248 2.33643M71.0436 32.9964H74.1261C74.873 32.9964 75.5893 33.2931 76.1175 33.8213C76.6456 34.3494 76.9423 35.0658 76.9423 35.8127C76.9423 36.5596 76.6456 37.2759 76.1175 37.8041C75.5893 38.3322 74.873 38.6289 74.1261 38.6289H68.1748L66.1348 43.6464C65.9253 44.1671 65.5648 44.6132 65.0997 44.9272C64.6345 45.2413 64.0861 45.4091 63.5248 45.4089H26.3286C25.7673 45.4091 25.2189 45.2413 24.7537 44.9272C24.2886 44.6132 23.9281 44.1671 23.7186 43.6464L21.6823 38.6289H15.7273C14.9804 38.6289 14.2641 38.3322 13.7359 37.8041C13.2078 37.2759 12.9111 36.5596 12.9111 35.8127C12.9111 35.0658 13.2078 34.3494 13.7359 33.8213C14.2641 33.2931 14.9804 32.9964 15.7273 32.9964H71.0436ZM12.8736 87.6639L4.89357 77.6064C2.32857 74.4289 0.920242 70.4737 0.899824 66.3902V45.7502C0.879831 44.9514 1.0199 44.1566 1.31178 43.4128C1.60366 42.6689 2.04145 41.991 2.59936 41.419C3.15727 40.8469 3.82402 40.3923 4.56034 40.0819C5.29665 39.7715 6.08763 39.6116 6.8867 39.6116C7.68577 39.6116 8.47675 39.7715 9.21306 40.0819C9.94938 40.3923 10.6161 40.8469 11.174 41.419C11.7319 41.991 12.1697 42.6689 12.4616 43.4128C12.7535 44.1566 12.8936 44.9514 12.8736 45.7502L12.9186 51.4502L12.7123 51.5739C10.8678 52.8158 9.5497 54.698 9.01348 56.8561C8.47726 59.0141 8.76103 61.2944 9.80982 63.2552L15.8398 73.1552C16.2282 73.7937 16.8543 74.2518 17.5804 74.4286C18.3066 74.6055 19.0732 74.4867 19.7117 74.0983C20.3502 73.7099 20.8083 73.0838 20.9852 72.3577C21.162 71.6316 21.0432 70.8649 20.6548 70.2264L14.6923 60.4389C14.339 59.6886 14.2776 58.8336 14.5203 58.0405C14.7629 57.2474 15.2921 56.5731 16.0048 56.1489C16.9147 55.7135 17.925 55.5307 18.9298 55.6197C19.9346 55.7088 20.897 56.0664 21.7161 56.6552C22.3366 57.1012 22.8598 57.669 23.2536 58.3239L27.8061 65.1902C29.7898 68.1264 30.8436 71.5877 30.8398 75.1277V87.6639H12.8736ZM77.1223 87.6639L85.1098 77.6064C87.6735 74.4284 89.0805 70.4733 89.0998 66.3902V45.7502C89.0998 44.1619 88.4689 42.6386 87.3458 41.5155C86.2226 40.3924 84.6994 39.7614 83.1111 39.7614C81.5228 39.7614 79.9995 40.3924 78.8764 41.5155C77.7533 42.6386 77.1223 44.1619 77.1223 45.7502L77.0811 51.4502C77.1486 51.4877 77.2173 51.5289 77.2873 51.5739C79.1319 52.8158 80.4499 54.698 80.9862 56.8561C81.5224 59.0141 81.2386 61.2944 80.1898 63.2552L74.1598 73.1552C73.9675 73.4713 73.7148 73.7465 73.4162 73.965C73.1175 74.1835 72.7788 74.3411 72.4192 74.4286C72.0597 74.5162 71.6864 74.5321 71.3207 74.4754C70.955 74.4188 70.6041 74.2906 70.2879 74.0983C69.9718 73.906 69.6966 73.6533 69.4781 73.3547C69.2596 73.056 69.1021 72.7172 69.0145 72.3577C68.9269 71.9982 68.911 71.6249 68.9677 71.2592C69.0244 70.8935 69.1525 70.5426 69.3448 70.2264L75.3073 60.4389C75.6607 59.6886 75.722 58.8336 75.4794 58.0405C75.2368 57.2474 74.7075 56.5731 73.9948 56.1489C72.7325 55.5448 71.2904 55.4329 69.95 55.8351C68.6096 56.2373 67.4673 57.1247 66.7461 58.3239L62.1936 65.1902C60.2067 68.1226 59.1495 71.5856 59.1598 75.1277V87.6639H77.1223Z" fill="black"/>
</svg>
