<svg width="90" height="90" viewBox="0 0 90 90" fill="none" xmlns="http://www.w3.org/2000/svg">
<g clip-path="url(#clip0_138_741)">
<path d="M90.0003 25.6502V20.2127C90.0003 18.0247 89.1311 15.9263 87.5839 14.3791C86.0367 12.8319 83.9383 11.9627 81.7502 11.9627H71.6628L70.6503 5.81271C70.382 4.18031 69.5393 2.69748 68.2741 1.63168C67.0089 0.565876 65.4045 -0.012733 63.7503 0.000212612H50.1377C48.4899 -0.00378265 46.8945 0.578886 45.6371 1.64389C44.3797 2.7089 43.5425 4.18671 43.2752 5.81271L42.2628 11.9627H32.1753C29.9872 11.9627 27.8888 12.8319 26.3416 14.3791C24.7944 15.9263 23.9253 18.0247 23.9253 20.2127V25.6502H90.0003ZM48.7503 6.90021C48.8038 6.59239 48.9654 6.31376 49.2059 6.11442C49.4465 5.91507 49.7503 5.80809 50.0628 5.81271H63.7503C64.0627 5.80809 64.3665 5.91507 64.6071 6.11442C64.8476 6.31376 65.0092 6.59239 65.0628 6.90021L65.9252 12.1502H47.9253L48.7503 6.90021ZM59.7752 31.2752V36.7502C59.7752 37.4961 59.4789 38.2115 58.9515 38.7389C58.424 39.2664 57.7087 39.5627 56.9627 39.5627C56.2168 39.5627 55.5015 39.2664 54.974 38.7389C54.4466 38.2115 54.1502 37.4961 54.1502 36.7502V31.2752H23.9253V49.1252C23.9253 50.2086 24.1386 51.2814 24.5532 52.2823C24.9678 53.2833 25.5755 54.1928 26.3416 54.9588C27.1077 55.7249 28.0172 56.3326 29.0181 56.7472C30.019 57.1618 31.0918 57.3752 32.1753 57.3752H81.7502C83.9383 57.3752 86.0367 56.506 87.5839 54.9588C89.1311 53.4117 90.0003 51.3132 90.0003 49.1252V31.2752H59.7752ZM64.4628 70.8377L53.2127 74.5877C53.0667 74.5795 52.9214 74.6142 52.7948 74.6875C52.6682 74.7608 52.5658 74.8695 52.5003 75.0002C51.9821 76.1243 51.1516 77.0755 50.1076 77.7405C49.0637 78.4054 47.8505 78.7559 46.6128 78.7502H33.7503C33.3226 78.7502 32.9124 78.5803 32.61 78.2779C32.3076 77.9755 32.1377 77.5654 32.1377 77.1377C32.1377 76.7101 32.3076 76.2999 32.61 75.9975C32.9124 75.6951 33.3226 75.5252 33.7503 75.5252H46.6502C47.5056 75.5252 48.3259 75.1854 48.9307 74.5806C49.5355 73.9758 49.8753 73.1555 49.8753 72.3002C49.8753 71.4449 49.5355 70.6246 48.9307 70.0198C48.3259 69.415 47.5056 69.0752 46.6502 69.0752H35.4002C31.6814 66.2291 27.1787 64.5929 22.5002 64.3877H15.9377C13.9314 64.3975 11.9546 64.8724 10.1628 65.7752L0.450251 70.6127C0.330417 70.6761 0.22722 70.7669 0.149034 70.8777C0.0708478 70.9884 0.0198749 71.1161 0.000251091 71.2502V88.6127C-0.00341743 88.758 0.0331743 88.9014 0.105977 89.0272C0.178779 89.1529 0.284954 89.2561 0.412751 89.3252C0.538167 89.3976 0.680433 89.4357 0.825251 89.4357C0.970069 89.4357 1.11234 89.3976 1.23775 89.3252L11.5878 82.8752C11.9945 82.6131 12.4539 82.4436 12.9335 82.3788C13.4131 82.314 13.901 82.3554 14.3628 82.5002C46.4628 93.3377 35.7378 93.3752 71.9253 75.0002C72.1756 74.8777 72.3908 74.6938 72.5509 74.4657C72.7109 74.2375 72.8106 73.9725 72.8405 73.6954C72.8705 73.4184 72.8298 73.1382 72.7222 72.8811C72.6146 72.624 72.4436 72.3984 72.2253 72.2252C71.155 71.355 69.8811 70.7711 68.5233 70.5284C67.1654 70.2857 65.7682 70.3921 64.4628 70.8377Z" fill="black"/>
</g>
<defs>
<clipPath id="clip0_138_741">
<rect width="90" height="90" fill="white"/>
</clipPath>
</defs>
</svg>
