<svg width="88" height="87" viewBox="0 0 88 87" fill="none" xmlns="http://www.w3.org/2000/svg">
<path d="M3.32732 3.12674C3.29069 3.06061 3.26752 2.98788 3.25915 2.91276C3.25079 2.83763 3.25738 2.76159 3.27856 2.68902C3.29974 2.61646 3.33509 2.54881 3.38256 2.48998C3.43003 2.43115 3.48869 2.3823 3.55514 2.34627L7.7317 0.0709552C7.79788 0.034464 7.87066 0.0114773 7.9458 0.00332832C8.02094 -0.00482064 8.09695 0.00203022 8.16942 0.0234838C8.24189 0.0449373 8.30938 0.0805666 8.36797 0.128305C8.42657 0.176043 8.4751 0.23494 8.51076 0.30158L10.1856 3.35736C16.5179 1.45892 23.5337 4.15892 26.8286 10.1931L18.7356 14.6116C19.3784 15.7903 19.5266 17.1761 19.1476 18.4642C18.7687 19.7522 17.8936 20.8369 16.7148 21.4797C15.5361 22.1225 14.1503 22.2707 12.8622 21.8918C11.5742 21.5128 10.4895 20.6377 9.8467 19.4589L1.75092 23.8717C-1.54674 17.8403 -0.0322076 10.48 4.99935 6.18392L3.32732 3.12674ZM60.3465 58.1702H87.5842V86.3261H60.3465V58.1702ZM57.2247 72.2425H35.2267C33.3831 72.2421 31.6151 71.51 30.3109 70.2069C29.0068 68.9039 28.2733 67.1364 28.2714 65.2928C28.2725 63.4492 29.0059 61.6814 30.3102 60.3784C31.6145 59.0754 33.383 58.3438 35.2267 58.3445H57.2247V72.2425ZM9.79607 77.8802C9.79607 76.3263 11.0547 75.0649 12.61 75.0649H57.2233V86.3233H9.79607V77.8788V77.8802ZM26.7133 63.8528C26.7125 64.9554 26.4946 66.0471 26.0719 67.0655C25.6492 68.0838 25.0301 69.009 24.2499 69.7881C23.4696 70.5671 22.5435 71.1849 21.5245 71.606C20.5055 72.0272 19.4135 72.2434 18.3109 72.2425C17.2082 72.2436 16.1161 72.0275 15.0969 71.6064C14.0777 71.1854 13.1515 70.5677 12.3711 69.7886C11.5907 69.0095 10.9714 68.0843 10.5486 67.0658C10.1259 66.0473 9.9079 64.9556 9.90717 63.8528C9.90717 59.222 13.6689 55.4674 18.3109 55.4674C22.9501 55.4674 26.7133 59.222 26.7133 63.8528ZM72.6414 40.3586L67.915 26.9022C66.9981 24.3653 65.2375 22.3853 60.2678 22.3853H38.4484C33.4801 22.3853 31.7167 24.3653 30.804 26.9022L26.079 40.3586C25.7261 41.2277 25.5433 43.181 27.4656 44.4888L38.5764 51.8097C39.3555 52.3234 40.3066 52.5072 41.221 52.3209C42.1355 52.1345 42.9387 51.5931 43.4547 50.8155C43.7091 50.4295 43.8851 49.9971 43.9724 49.543C44.0598 49.089 44.0568 48.6222 43.9637 48.1693C43.8706 47.7164 43.6891 47.2863 43.4298 46.9036C43.1704 46.5208 42.8381 46.1929 42.452 45.9386L33.6334 40.1266L36.1154 33.2795H39.5509L37.5386 38.8342L44.2337 43.247C44.9747 43.7325 45.6119 44.3603 46.1085 45.0939C46.605 45.8275 46.951 46.6523 47.1264 47.5206C47.3084 48.3887 47.3161 49.2842 47.149 50.1552C46.982 51.0262 46.6435 51.8553 46.1533 52.5944C45.7606 53.1806 45.2785 53.7016 44.7245 54.1385H53.9945C53.4415 53.7 52.9592 53.1793 52.5644 52.5944C52.0743 51.8552 51.7358 51.0262 51.5683 50.1553C51.4008 49.2844 51.4076 48.3889 51.5884 47.5206C51.7647 46.6525 52.1112 45.8279 52.608 45.0943C53.1047 44.3608 53.7418 43.733 54.4825 43.247L61.1819 38.8342L59.1611 33.2795H62.5994L65.087 40.1266L56.2642 45.9386C54.6428 47.0074 54.19 49.1969 55.263 50.8155C56.3359 52.4341 58.5212 52.8813 60.1426 51.8097L71.252 44.4888C73.1758 43.1795 72.993 41.2277 72.6414 40.3586ZM51.5294 9.2158C51.264 9.79219 50.8389 10.2804 50.3045 10.6226C49.7702 10.9648 49.1489 11.1467 48.5144 11.1466C47.879 11.1463 47.2569 10.9644 46.7215 10.6223C46.1861 10.2802 45.7596 9.79221 45.4923 9.2158H39.4061C39.3076 9.75017 39.25 10.2972 39.25 10.8611C39.2526 13.3249 40.2333 15.6869 41.9765 17.428C43.7197 19.1691 46.0829 20.147 48.5467 20.1466C49.7669 20.1475 50.9754 19.9081 52.1031 19.4419C53.2308 18.9757 54.2556 18.292 55.1191 17.4298C55.9825 16.5675 56.6676 15.5436 57.1353 14.4166C57.603 13.2895 57.8441 12.0814 57.8448 10.8611C57.8448 10.2958 57.7844 9.75017 57.6901 9.2158H51.5294ZM45.287 7.02345C45.469 6.30525 45.885 5.66814 46.4695 5.21279C47.0539 4.75745 47.7735 4.50984 48.5144 4.50908C50.0697 4.50908 51.3817 5.58345 51.7361 7.02345H57.0095C56.2713 5.39846 55.0808 4.02037 53.5804 3.05381C52.0799 2.08726 50.3329 1.57312 48.5481 1.57283C46.7633 1.57312 45.0163 2.08726 43.5158 3.05381C42.0154 4.02037 40.8249 5.39846 40.0867 7.02345H45.287Z" fill="black"/>
</svg>
