<svg width="68" height="72" viewBox="0 0 68 72" fill="none" xmlns="http://www.w3.org/2000/svg">
<path d="M0 0H67.5V16.4438H60V7.5H7.5V41.25H23.7488V48.75H0V0Z" fill="black"/>
<path d="M36.3149 27.3262C39.5924 30.795 42.3861 33.75 48.7499 33.75H56.2499C58.239 33.75 60.1467 34.5402 61.5532 35.9467C62.9597 37.3532 63.7499 39.2609 63.7499 41.25V45C63.7498 46.3165 63.4033 47.6098 62.745 48.7499C62.0868 49.89 61.14 50.8368 59.9999 51.495V71.25H48.7499V41.25C38.9361 41.25 33.9149 35.8125 30.5999 32.2313C30.1504 31.7375 29.6916 31.2525 29.2236 30.7762L34.5261 25.4738C35.1486 26.0988 35.7449 26.7162 36.3149 27.3262ZM59.9999 24.375C59.9999 25.8668 59.4072 27.2976 58.3524 28.3525C57.2975 29.4074 55.8667 30 54.3749 30C52.883 30 51.4523 29.4074 50.3974 28.3525C49.3425 27.2976 48.7499 25.8668 48.7499 24.375C48.7499 22.8832 49.3425 21.4524 50.3974 20.3975C51.4523 19.3426 52.883 18.75 54.3749 18.75C55.8667 18.75 57.2975 19.3426 58.3524 20.3975C59.4072 21.4524 59.9999 22.8832 59.9999 24.375Z" fill="black"/>
</svg>
