<svg width="30" height="30" viewBox="0 0 30 30" fill="none" xmlns="http://www.w3.org/2000/svg">
<path d="M3.75023 15C3.75023 12.9325 5.43273 11.25 7.50023 11.25H13.4552C12.1752 9.82124 12.2315 7.46874 13.599 6.09874C14.3022 5.39573 15.2559 5.00079 16.2502 5.00079C17.2446 5.00079 18.1983 5.39573 18.9015 6.09874L27.8027 15L18.9015 23.9012C18.1983 24.6043 17.2446 24.9992 16.2502 24.9992C15.2559 24.9992 14.3022 24.6043 13.599 23.9012C12.2302 22.5337 12.174 20.1775 13.4552 18.75H7.50023C5.43273 18.75 3.75023 17.0675 3.75023 15ZM19.4827 13.75H7.50023C7.17838 13.7644 6.87449 13.9024 6.65183 14.1352C6.42917 14.3681 6.3049 14.6778 6.3049 15C6.3049 15.3222 6.42917 15.6319 6.65183 15.8648C6.87449 16.0976 7.17838 16.2356 7.50023 16.25H19.4827L15.3665 20.3662C15.1389 20.6042 15.012 20.9208 15.012 21.25C15.012 21.5792 15.1389 21.8958 15.3665 22.1337C15.6009 22.3681 15.9188 22.4997 16.2502 22.4997C16.5817 22.4997 16.8996 22.3681 17.134 22.1337L24.2677 15L17.134 7.86624C16.8996 7.6319 16.5817 7.50026 16.2502 7.50026C15.9188 7.50026 15.6009 7.6319 15.3665 7.86624C15.1389 8.1042 15.012 8.42075 15.012 8.74999C15.012 9.07923 15.1389 9.39578 15.3665 9.63374L19.4827 13.75Z" fill="white"/>
</svg>
