<svg width="120" height="120" viewBox="0 0 120 120" fill="none" xmlns="http://www.w3.org/2000/svg">
<path d="M105 84.75C97.5 70.5 90 72.75 81.75 72C82.5 74.25 82.5 76.5 82.5 79.5C94.5 82.5 97.5 96.75 97.5 105V112.5H82.5V105H90C90 105 90 86.25 78.75 86.25C67.5 86.25 67.5 104.25 67.5 105H75V112.5H60V105C60 96.75 63 81.75 75 79.5C75 75 74.25 71.25 73.5 69.75C72 69 70.5 67.5 70.5 65.25C70.5 60.75 76.5 62.25 81 54C81 54 87.75 36.75 85.5 21.75H78C78 20.25 78.75 19.5 78.75 18C78.75 16.5 78.75 15.75 78 14.25H84C81.75 6.75 74.25 0 60 0C45.75 0 38.25 6.75 35.25 15H41.25C41.25 16.5 40.5 17.25 40.5 18.75C40.5 20.25 40.5 21 41.25 22.5H33.75C32.25 37.5 38.25 54.75 38.25 54.75C42.75 62.25 48.75 60.75 48.75 66C48.75 69.75 45 71.25 40.5 72C39 73.5 37.5 76.5 37.5 82.5V91.5C42 93 45 97.5 45 102C45 107.25 39.75 112.5 33.75 112.5C27.75 112.5 22.5 107.25 22.5 101.25C22.5 96 25.5 92.25 30 90.75V81.75C30 78 30.75 75 31.5 72C26.25 72.75 20.25 75 15 84.75C10.5 93 8.25 120 8.25 120H111C111.75 120 109.5 93 105 84.75ZM48.75 18.75C48.75 12.75 54 7.5 60 7.5C66 7.5 71.25 12.75 71.25 18.75C71.25 24.75 66 30 60 30C54 30 48.75 24.75 48.75 18.75Z" fill="white"/>
<path d="M37.5 101.25C37.5 102.245 37.1049 103.198 36.4016 103.902C35.6984 104.605 34.7446 105 33.75 105C32.7554 105 31.8016 104.605 31.0984 103.902C30.3951 103.198 30 102.245 30 101.25C30 100.255 30.3951 99.3016 31.0984 98.5983C31.8016 97.8951 32.7554 97.5 33.75 97.5C34.7446 97.5 35.6984 97.8951 36.4016 98.5983C37.1049 99.3016 37.5 100.255 37.5 101.25Z" fill="black"/>
</svg>
