<svg width="24" height="25" viewBox="0 0 24 25" fill="none" xmlns="http://www.w3.org/2000/svg">
<path d="M23.5398 22.6275L21.8311 17.5H19.9561L20.9973 22.5H2.66485L3.7061 17.5H1.8311L0.121098 22.6275C-0.312652 23.9325 0.456098 25 1.8311 25H21.8311C23.2061 25 23.9748 23.9325 23.5398 22.6275ZM18.0811 6.25C18.0811 4.5924 17.4226 3.00269 16.2505 1.83058C15.0784 0.65848 13.4887 0 11.8311 0C10.1735 0 8.58378 0.65848 7.41168 1.83058C6.23958 3.00269 5.5811 4.5924 5.5811 6.25C5.5811 12.2188 11.8311 18.75 11.8311 18.75C11.8311 18.75 18.0811 12.2188 18.0811 6.25ZM8.4561 6.325C8.45643 5.43011 8.81216 4.57199 9.44506 3.93932C10.078 3.30666 10.9362 2.95125 11.8311 2.95125C12.726 2.95125 13.5843 3.30676 14.2171 3.93958C14.85 4.5724 15.2055 5.43069 15.2055 6.32563C15.2055 7.22056 14.85 8.07885 14.2171 8.71167C13.5843 9.34449 12.726 9.7 11.8311 9.7C10.936 9.7 10.0775 9.34442 9.44461 8.71148C8.81168 8.07855 8.4561 7.22011 8.4561 6.325Z" fill="black"/>
</svg>
