<svg width="45" height="49" viewBox="0 0 45 49" fill="none" xmlns="http://www.w3.org/2000/svg">
<path d="M24.3756 48.75H20.6256C19.6311 48.75 18.6772 48.3549 17.974 47.6516C17.2707 46.9484 16.8756 45.9946 16.8756 45L16.8815 34.943C16.8816 34.8606 16.86 34.7797 16.8189 34.7084C16.7778 34.637 16.7187 34.5777 16.6474 34.5365C16.5761 34.4953 16.4952 34.4736 16.4129 34.4735C16.3306 34.4735 16.2497 34.4952 16.1784 34.5363L7.46664 39.5824C6.61938 40.0716 5.61253 40.2041 4.66754 39.9509C3.72255 39.6978 2.91682 39.0796 2.42757 38.2324L0.49398 34.8762L0.486949 34.8645C0.0108825 34.0176 -0.113903 33.0177 0.139418 32.0798C0.392739 31.1419 1.00394 30.3409 1.84164 29.8488L10.585 24.7805C10.656 24.7393 10.715 24.6801 10.756 24.609C10.797 24.5378 10.8185 24.4571 10.8185 24.375C10.8185 24.2929 10.797 24.2122 10.756 24.141C10.715 24.0699 10.656 24.0107 10.585 23.9695L1.84984 18.9059C1.42926 18.6647 1.06046 18.3428 0.764631 17.9587C0.468804 17.5746 0.251774 17.1358 0.126005 16.6676C0.000237026 16.1993 -0.0317915 15.7109 0.0317589 15.2302C0.0953093 14.7496 0.253187 14.2862 0.496325 13.8668L2.42289 10.5211C2.66633 10.0981 2.99127 9.72765 3.3789 9.43114C3.76653 9.13463 4.20914 8.91799 4.68109 8.79375C5.14766 8.66854 5.63445 8.63721 6.11322 8.70158C6.592 8.76595 7.05322 8.92475 7.47015 9.16875L16.1784 14.2078C16.2497 14.249 16.3306 14.2706 16.4129 14.2706C16.4952 14.2706 16.5761 14.2489 16.6474 14.2076C16.7187 14.1664 16.7778 14.1071 16.8189 14.0358C16.86 13.9644 16.8816 13.8835 16.8815 13.8012L16.8756 3.75C16.8756 2.75544 17.2707 1.80161 17.974 1.09835C18.6772 0.395088 19.6311 0 20.6256 0H24.3756C25.3702 0 26.324 0.395088 27.0273 1.09835C27.7305 1.80161 28.1256 2.75544 28.1256 3.75V13.7953C28.1255 13.8777 28.1471 13.9586 28.1882 14.0299C28.2293 14.1013 28.2884 14.1606 28.3597 14.2018C28.431 14.243 28.5119 14.2647 28.5942 14.2648C28.6765 14.2648 28.7574 14.2431 28.8287 14.202L37.5405 9.15586C38.3879 8.66768 39.3945 8.53564 40.3392 8.78874C41.2839 9.04183 42.0896 9.65938 42.5795 10.5059L44.5119 13.8621L44.519 13.8727C45.0005 14.7204 45.1273 15.7242 44.8718 16.665C44.6163 17.6059 43.9991 18.4076 43.1549 18.8953L34.4209 23.9578C34.3499 23.999 34.2909 24.0582 34.25 24.1293C34.209 24.2005 34.1874 24.2812 34.1874 24.3633C34.1874 24.4454 34.209 24.5261 34.25 24.5972C34.2909 24.6684 34.3499 24.7275 34.4209 24.7687L43.1549 29.8312C43.5755 30.0724 43.9443 30.3943 44.2401 30.7784C44.536 31.1625 44.7531 31.6012 44.879 32.0694C45.0048 32.5376 45.037 33.026 44.9736 33.5067C44.9102 33.9873 44.7525 34.4508 44.5096 34.8703L42.583 38.216C42.3396 38.639 42.0147 39.0095 41.627 39.306C41.2394 39.6025 40.7968 39.8191 40.3248 39.9434C39.8583 40.0686 39.3715 40.0999 38.8927 40.0355C38.4139 39.9712 37.9527 39.8124 37.5358 39.5684L28.8276 34.5293C28.7563 34.4882 28.6756 34.4665 28.5933 34.4665C28.5111 34.4665 28.4303 34.4881 28.359 34.5292C28.2878 34.5703 28.2286 34.6294 28.1874 34.7006C28.1463 34.7718 28.1245 34.8525 28.1244 34.9348L28.1256 45C28.1256 45.9946 27.7305 46.9484 27.0273 47.6516C26.324 48.3549 25.3702 48.75 24.3756 48.75Z" fill="white"/>
</svg>
