<svg width="22" height="22" viewBox="0 0 22 22" fill="none" xmlns="http://www.w3.org/2000/svg">
<path d="M17.5245 21.8745C16.5714 21.8745 15.2325 21.5298 13.2276 20.4097C10.7896 19.0425 8.9039 17.7803 6.47909 15.3619C4.1412 13.0254 3.00351 11.5127 1.41122 8.61527C-0.387607 5.34378 -0.0809669 3.62894 0.261807 2.89603C0.67001 2.02005 1.27255 1.49613 2.05136 0.976109C2.49372 0.686283 2.96184 0.437837 3.44979 0.233922C3.49862 0.212926 3.54403 0.192906 3.58456 0.17484C3.82626 0.0659532 4.19247 -0.0985976 4.65634 0.0771837C4.96591 0.193395 5.24228 0.431188 5.67489 0.858434C6.5621 1.73343 7.7745 3.68216 8.22177 4.63919C8.52206 5.28421 8.72079 5.71 8.72128 6.18753C8.72128 6.74662 8.44003 7.17777 8.09872 7.6431C8.03476 7.7305 7.97128 7.814 7.90975 7.89505C7.53817 8.38334 7.45663 8.52445 7.51034 8.7764C7.61923 9.28275 8.43124 10.7901 9.76571 12.1216C11.1002 13.4532 12.5641 14.2139 13.0724 14.3223C13.335 14.3785 13.4791 14.2935 13.983 13.9087C14.0553 13.8535 14.1295 13.7964 14.2071 13.7393C14.7276 13.3521 15.1388 13.0782 15.6847 13.0782H15.6876C16.1627 13.0782 16.5694 13.2842 17.2432 13.6241C18.1222 14.0674 20.1295 15.2642 21.0099 16.1524C21.4381 16.584 21.6768 16.8594 21.7935 17.1685C21.9693 17.6338 21.8038 17.9986 21.6959 18.2427C21.6778 18.2832 21.6578 18.3277 21.6368 18.377C21.4313 18.8641 21.1814 19.3312 20.8902 19.7725C20.3712 20.5489 19.8453 21.1499 18.9674 21.5586C18.5166 21.7719 18.0232 21.8799 17.5245 21.8745Z" fill="black"/>
</svg>
