<svg width="62" height="75" viewBox="0 0 62 75" fill="none" xmlns="http://www.w3.org/2000/svg">
<path d="M16.875 0C18.8641 0 20.7718 0.790176 22.1783 2.1967C23.5848 3.60322 24.375 5.51088 24.375 7.5C24.375 9.48912 23.5848 11.3968 22.1783 12.8033C20.7718 14.2098 18.8641 15 16.875 15C14.8859 15 12.9782 14.2098 11.5717 12.8033C10.1652 11.3968 9.375 9.48912 9.375 7.5C9.375 5.51088 10.1652 3.60322 11.5717 2.1967C12.9782 0.790176 14.8859 0 16.875 0ZM11.25 75V52.5H0L9.75 24C10.875 21 13.5 18.75 16.875 18.75C20.25 18.75 23.25 21 24 24L33.75 52.5H22.5V75H11.25ZM43.125 37.5C43.125 35.5109 43.9152 33.6032 45.3217 32.1967C46.7282 30.7902 48.6359 30 50.625 30C52.6141 30 54.5218 30.7902 55.9283 32.1967C57.3348 33.6032 58.125 35.5109 58.125 37.5C58.125 39.4891 57.3348 41.3968 55.9283 42.8033C54.5218 44.2098 52.6141 45 50.625 45C48.6359 45 46.7282 44.2098 45.3217 42.8033C43.9152 41.3968 43.125 39.4891 43.125 37.5ZM39.375 48.75H61.875V63.75H56.25V75H45V63.75H39.375V48.75Z" fill="black"/>
</svg>
