<svg width="120" height="120" viewBox="0 0 120 120" fill="none" xmlns="http://www.w3.org/2000/svg">
<path d="M60 0C50.3077 0 44.5062 1.47692 40.8185 3.31846C38.9723 4.24154 37.6615 5.21077 36.78 6.20308C36.1747 6.94044 35.6874 7.76718 35.3354 8.65385C35.1907 9.02452 35.0945 9.41235 35.0492 9.80769L32.5938 41.3954C32.5615 41.5892 32.6262 41.9031 32.5938 42.1154L32.3077 45.2908C32.2807 45.5778 32.2807 45.8668 32.3077 46.1538C32.3077 61.3846 44.7692 73.8462 60 73.8462C75.2308 73.8462 87.6923 61.3846 87.6923 46.1538V45.2908L84.9508 9.80769C84.9055 9.41235 84.8093 9.02452 84.6646 8.65385C84.6646 8.65385 84.1062 7.19538 83.22 6.20308C82.3385 5.20615 81.0277 4.23692 79.1815 3.31846C75.4939 1.47231 69.6923 0 60 0ZM60 73.8462C29.5385 73.8462 4.61539 88.1815 4.61539 101.105V120H115.385V101.105C115.385 88.8277 92.8523 75.3046 64.4723 73.9892C62.9836 73.8899 61.492 73.8422 60 73.8462ZM60 9.23077C68.7692 9.23077 73.1492 10.6154 75 11.5385C75.6185 11.8477 75.6923 11.9677 75.8677 12.1154L77.7415 35.7692C73.4954 36.0277 67.7077 36.9231 60 36.9231C52.2923 36.9231 46.5092 36.0277 42.2585 35.7692L44.1323 12.1154C44.3031 11.9677 44.3815 11.8477 45 11.5385C46.8508 10.6154 51.2308 9.23077 60 9.23077ZM56.2477 13.8462V19.3292H50.7692V26.8292H56.2523V32.3077H63.7477V26.8246H69.2308V19.3292H63.7477V13.8462H56.2477ZM46.1538 84.2308L57.9831 110.769H13.8462V101.105C13.8462 97.6662 25.6154 87.5954 46.1538 84.2308ZM73.8462 84.2308C94.3846 87.6 106.154 97.6662 106.154 101.105V110.769H62.0169L73.8462 84.2308Z" fill="white"/>
</svg>
