<svg width="1728" height="1642" viewBox="0 0 1728 1642" fill="none" xmlns="http://www.w3.org/2000/svg">
<g clip-path="url(#clip0_14_32)">
<rect width="1728" height="1642" fill="white"/>
<path d="M1610.5 100.5C1610.5 308.987 1355.97 453.5 1042 453.5C728.026 453.5 476 216.487 476 8C476 -200.487 728.026 -277 1042 -277C1355.97 -277 1610.5 -107.987 1610.5 100.5Z" fill="#223CCB"/>
<path d="M2136 1081.5C2136 1289.99 2040.47 1641.5 1726.5 1641.5C1412.53 1641.5 1055 1451.49 1055 1243C1055 1034.51 1253.53 704 1567.5 704C1881.47 704 2136 873.013 2136 1081.5Z" fill="#192A55"/>
<path d="M1993 104.5C1993 312.987 1463.13 772.958 1468.47 773C1102.09 773 808 184.987 808 -23.5C808 -231.987 963.23 -273 1329.61 -273C1695.99 -273 1993 -103.987 1993 104.5Z" fill="#2B4BFE"/>
<path d="M2271 990.73C2271 1239.3 1717.58 1711 1673.25 1633.51C1316.38 1633.51 1019.61 1047.98 1248.56 961.141C1512.8 860.919 627.172 220 984.046 220C1340.92 220 2271 742.164 2271 990.73Z" fill="#2B4BFE"/>
<path d="M1753.56 784.77C1753.56 990.767 2246.14 -84.2227 1818.29 -84.2227C1390.44 -84.2227 903.916 63.4789 903.916 -142.518C903.916 -348.515 718.625 244.305 1146.48 244.305C1574.33 244.305 1753.56 578.773 1753.56 784.77Z" fill="#132040" fill-opacity="0.8"/>
<g filter="url(#filter0_d_14_32)">
<path fill-rule="evenodd" clip-rule="evenodd" d="M752.224 707.764C757.077 604.262 759.094 486.239 831.069 410.69C903.802 334.345 1056.95 339.83 1161.95 356.005C1250.7 369.676 1316.73 430.187 1382.03 490.95C1450.28 554.451 1539.94 615.283 1540 707.764C1540.06 800.268 1447.73 858.498 1382.33 924.872C1315.29 992.906 1256.32 1072.78 1161.95 1091.42C1047.78 1113.96 907.019 1120.68 831.069 1033.73C756.276 948.108 746.932 820.609 752.224 707.764Z" fill="white"/>
</g>
</g>
<defs>
<filter id="filter0_d_14_32" x="747" y="346" width="797" height="768" filterUnits="userSpaceOnUse" color-interpolation-filters="sRGB">
<feFlood flood-opacity="0" result="BackgroundImageFix"/>
<feColorMatrix in="SourceAlpha" type="matrix" values="0 0 0 0 0 0 0 0 0 0 0 0 0 0 0 0 0 0 127 0" result="hardAlpha"/>
<feOffset dy="4"/>
<feGaussianBlur stdDeviation="2"/>
<feComposite in2="hardAlpha" operator="out"/>
<feColorMatrix type="matrix" values="0 0 0 0 0 0 0 0 0 0 0 0 0 0 0 0 0 0 0.25 0"/>
<feBlend mode="normal" in2="BackgroundImageFix" result="effect1_dropShadow_14_32"/>
<feBlend mode="normal" in="SourceGraphic" in2="effect1_dropShadow_14_32" result="shape"/>
</filter>
<clipPath id="clip0_14_32">
<rect width="1728" height="1642" fill="white"/>
</clipPath>
</defs>
</svg>
